<?xml version="1.0" standalone="no"?>
<!DOCTYPE svg PUBLIC "-//W3C//DTD SVG 1.1//EN" "http://www.w3.org/Graphics/SVG/1.1/DTD/svg11.dtd">
<svg width="100%" height="100%" viewBox="0 0 275 737" version="1.1" xmlns="http://www.w3.org/2000/svg" xmlns:xlink="http://www.w3.org/1999/xlink" xml:space="preserve" style="fill-rule:evenodd;clip-rule:evenodd;stroke-linejoin:round;stroke-miterlimit:1.41421;">
    <path d="M94.845,658.741C87.1131,638.319 89.3555,617.029 88.7971,595.03C91.5418,602.824 95.0577,609.687 93.7341,617.277C92.1682,626.268 93.6691,634.921 94.7386,643.732C95.3384,648.669 94.845,653.733 94.845,658.741M268.711,89.9833C268.226,88.0363 267.931,85.7761 264.914,84.9873C264.731,87.3834 264.518,89.5608 264.409,91.7412C263.957,100.51 264.185,109.377 262.923,118.024C261.723,126.229 259.354,134.327 256.769,142.233C255.191,147.064 251.578,150.804 246.082,153.475C249.016,141.253 246.056,130.126 243.134,119.106C240.46,109.019 239.916,98.8941 240.484,88.5681C241.072,77.8699 239.491,67.4258 235.378,57.5075C230.997,46.9305 225.017,37.2516 217.778,28.4029C213.692,24.0982 209.568,19.8319 205.393,15.6129C200.371,12.1916 195.767,8.22369 190.736,4.81125C190.189,5.30761 189.64,5.81578 189.058,6.35054C189.111,6.43031 189.164,6.51895 189.217,6.60167C191.407,8.86481 193.554,11.1545 195.655,13.4915C198.731,15.6011 201.942,19.6664 203.295,21.2737C204.084,22.2102 204.844,23.1616 205.576,24.1307C205.7,24.2577 205.836,24.3788 205.96,24.5088C206.25,24.6595 206.534,24.8604 206.802,25.1588C207.411,25.8265 207.978,26.509 208.522,27.2092C209.004,27.7736 209.456,28.3438 209.89,28.9288C210.088,29.0381 210.268,29.1651 210.41,29.3099C211.976,30.9792 213.119,33.0769 214.271,35.0918C219.914,44.9391 223.348,55.6403 225.552,66.6694C227.079,74.3127 228.075,82.1273 228.503,89.9094C228.837,95.9277 226.299,97.1923 221.501,93.7001C213.633,87.9713 206.07,81.8201 198.356,75.8815C192.653,71.4882 186.966,67.0771 181.163,62.8197C179.323,61.4695 177.379,59.8386 174.114,60.4591C175.018,62.3322 175.638,63.8656 176.466,65.2779C182.46,75.5093 191.238,83.1939 200.111,90.7456C209.234,98.5129 218.387,106.136 224.252,116.97C232.164,131.585 235.228,146.686 229.927,162.85C227.029,171.693 222.367,179.62 216.886,187.08C214.198,190.737 211.411,194.324 208.67,197.943C211.934,189.245 213.329,180.358 213.55,171.338C213.672,166.531 212.806,161.686 212.188,156.885C212.05,155.815 211.089,154.846 210.501,153.833C209.473,155.094 209.16,156.17 209.006,157.269C207.503,168.209 205.26,178.97 200.953,189.189C197.381,197.672 192.249,205.152 185.908,211.818C175.777,222.466 165.614,233.087 155.583,243.83C154.112,245.407 152.744,246.406 150.67,245.75C143.169,243.389 135.824,244.447 128.464,246.474C127.46,246.754 125.87,246.692 125.188,246.081C121.034,242.34 116.495,238.831 113.139,234.437C103.54,221.872 97.1583,207.486 91.8491,192.723C87.9876,181.986 85.1838,170.874 81.9072,159.928C81.6266,159.006 81.3163,158.09 80.8289,156.586C77.895,160.732 77.8891,164.747 78.0635,168.744C78.7016,183.295 82.7168,197.095 87.6183,210.671C89.0483,214.633 90.7678,218.486 92.1061,221.786C84.4895,215.676 76.7901,209.032 68.6061,203.055C58.2004,195.45 48.4565,187.224 40.4173,177.102C30.9393,165.178 26.1383,151.93 29.3853,136.573C31.3618,127.216 35.8172,118.94 40.9196,110.931C45.9688,103.004 50.959,95.0178 55.5118,86.8013C58.2034,81.9353 58.2595,76.3572 57.6627,70.8175C56.9595,71.4173 56.5223,72.0998 56.1116,72.797C51.801,80.0887 47.6883,87.4986 43.1089,94.613C41.1382,97.6679 38.4851,100.442 35.6488,102.738C32.3161,105.444 28.8712,104.756 26.8149,101.015C25.1101,97.9132 23.692,94.4564 23.0715,90.9908C20.7463,78.0176 22.977,65.3783 27.5919,53.2885C32.9247,39.3197 39.918,26.119 48.1581,13.6068C48.7047,12.7736 49.1626,11.8813 49.6619,11.0157C49.4463,10.738 49.2335,10.4602 49.0179,10.1855C47.6145,10.868 45.9984,11.2993 44.8579,12.2891C43.1148,13.8018 41.5548,15.5863 40.1721,17.4476C31.4711,29.1149 24.5104,41.766 18.0371,54.8101C10.6627,69.683 8.6211,84.8809 11.6524,101.069C13.1681,109.17 14.1017,117.389 15.118,125.576C15.3219,127.231 14.6985,128.986 14.4592,130.696C14.0574,130.687 13.6585,130.676 13.2626,130.667C12.6688,128.454 11.9213,126.27 11.5047,124.025C10.1161,116.532 8.89292,109.01 7.48067,101.521C7.19999,100.037 6.36683,98.6607 5.78775,97.2336C5.50412,97.337 5.22344,97.4434 4.94276,97.5498C4.9014,98.2618 4.78027,98.9768 4.81867,99.6829C5.50412,112.148 5.90297,124.642 6.99909,137.069C8.04202,148.825 10.6715,160.285 16.1816,170.88C17.3782,173.179 18.8023,175.356 20.5543,178.326C20.8941,176.639 21.0418,175.897 21.0536,175.847C21.8927,177.82 22.3979,180.704 24.0495,182.583C29.4119,188.69 34.9781,194.658 40.8723,200.248C46.2406,205.335 52.4067,209.584 57.7277,214.71C62.9867,219.777 69.5575,223.095 74.6658,228.327C77.2185,230.942 80.3295,233.013 83.4938,235.584C79.455,234.36 75.8919,233.099 72.2431,232.224C67.123,231.001 65.4862,232.272 64.9071,237.539C64.8067,238.47 64.8539,239.439 64.9662,240.376C66.2809,251.455 71.1736,260.75 79.3309,268.257C83.1718,271.791 87.4646,274.698 93.0309,274.964C98.0299,275.2 102.338,278.362 102.686,283.275C103.103,289.148 104.335,295.084 101.407,301.026C98.2485,307.425 95.2497,314.064 94.8361,321.435C94.6884,324.074 94.9336,326.821 94.2718,329.327C93.0398,333.992 91.2582,338.512 89.7307,343.103C86.1233,353.949 78.4003,360.104 66.9575,359.858C62.0708,359.755 57.9138,361.321 53.4939,362.514C52.5455,362.771 51.5617,362.931 50.0342,363.244C49.8156,363.336 49.5969,363.421 49.3783,363.513C49.4078,363.522 49.4344,363.528 49.464,363.537C47.8922,365.182 46.8256,365.383 46.0013,364.884C45.6025,365.046 45.1977,365.206 44.7988,365.368C44.5861,365.501 44.3704,365.628 44.1607,365.758C44.3764,366.045 44.5979,366.326 44.8254,366.609C37.8647,369.401 36.222,375.937 33.7609,382.017C32.7947,384.404 31.0014,386.455 29.5744,388.656C28.5994,390.165 27.4471,391.581 26.6524,393.179C21.6977,403.08 19.8334,413.825 18.3591,424.647C18.2409,425.507 18.8466,426.464 19.1332,427.419C18.7402,428.16 17.8539,429.115 17.7593,430.14C16.7105,441.222 16.1285,452.434 18.7314,463.271C20.3741,470.114 21.3077,476.856 21.7715,483.826C22.324,492.146 23.5472,500.43 24.7113,508.7C25.314,512.981 27.0099,517.167 27.1753,521.433C27.5683,531.603 30.57,540.98 34.5734,550.163C39.4364,561.322 42.9877,572.759 42.5475,585.171C42.2964,592.353 42.4087,599.556 42.5682,606.741C42.6332,609.575 42.9936,612.464 43.6909,615.209C46.6749,626.944 46.802,638.957 46.4209,650.861C46.1461,659.47 44.1666,668.038 42.7455,676.589C41.2623,685.532 40.9344,694.711 37.4126,703.268C36.9074,704.488 36.9015,705.983 36.9517,707.342C37.0906,710.914 39.2976,712.855 42.7484,712.193C44.0661,711.942 45.2184,710.793 46.6188,709.948C49.1951,714.013 55.0775,714.105 57.2077,709.821C58.4456,707.318 58.5786,704.181 58.8031,701.294C59.0602,698.003 58.8622,694.679 58.8622,691.157C59.6363,691.745 60.174,692.156 61.474,693.143C60.7531,686.492 60.4576,680.574 59.4236,674.792C56.3775,657.836 57.1693,640.824 58.354,623.81C58.6613,619.407 60.4399,615.073 60.4961,610.698C60.5758,604.162 59.6865,597.618 59.2788,591.074C58.4693,578.139 58.4604,565.222 61.9083,552.612C62.8774,549.058 64.9337,545.808 66.4937,542.416C66.9191,542.529 67.3446,542.638 67.7671,542.747C67.7671,544.024 67.7789,545.3 67.7611,546.57C67.7198,550.266 67.5455,553.968 67.6459,557.661C67.7936,563.053 68.3343,568.439 68.3639,573.828C68.4318,585.407 68.7923,596.894 72.769,607.988C74.0838,611.655 75.1592,615.555 75.434,619.41C76.5596,635.034 77.3219,650.678 78.2348,666.316C78.5184,671.143 78.8553,675.971 79.1655,680.793C79.4462,680.568 79.7298,680.341 80.0105,680.116C81.1332,680.701 82.4893,681.056 83.3461,681.907C86.6344,685.183 86.6344,689.574 86.8797,693.781C87.0392,696.576 87.7187,698.871 90.0794,700.677C90.9834,701.374 91.8462,703.002 91.6925,704.048C90.945,709.067 89.8726,714.037 88.8562,719.006C88.2446,722.011 87.249,724.965 86.9742,727.988C86.8649,729.181 87.9403,731.108 89.0098,731.675C92.5966,733.551 95.9529,732.015 97.4833,728.239C97.7995,727.45 98.1422,726.667 98.7508,725.219C99.6933,728.978 100.863,732.036 104.456,731.973C108.329,731.914 110.678,729.255 112.176,725.799C114.158,721.222 114.56,716.64 112.714,711.907C112.241,710.689 112.141,709.33 111.771,707.584C113.183,708.154 114.064,708.512 115.518,709.097C114.835,707.481 114.271,706.47 113.978,705.392C112.823,701.132 111.449,696.898 110.728,692.558C109.886,687.467 110.031,682.199 109.041,677.144C107.481,669.238 107.422,661.408 108.406,653.455C109.544,644.337 110.841,635.196 111.207,626.031C111.437,620.285 109.378,614.456 109.585,608.703C109.975,597.828 111.408,586.997 112.117,576.127C112.714,566.968 112.699,557.765 113.355,548.612C113.692,543.941 114.404,539.166 115.869,534.743C117.222,530.663 121.453,529.139 125.879,530.002C129.132,530.634 131.055,533.113 131.416,537.58C131.575,539.565 131.215,541.586 131.2,543.592C131.153,549.268 130.349,555.082 131.306,560.583C133.428,572.759 134.465,584.928 134.016,597.258C133.767,604.026 133.434,610.801 133.487,617.576C133.525,622.654 134.092,627.695 136.881,632.248C137.788,633.731 138.241,635.601 138.512,637.35C140.436,649.691 142.421,662.032 144.046,674.414C145.257,683.67 146.463,693.042 139.792,701.158C139.044,702.074 139.124,703.669 138.817,704.949L139.307,704.996C139.839,704.003 140.368,703.011 140.897,702.015C141.174,702.121 141.449,702.225 141.724,702.331C141.612,703.767 141.632,705.229 141.366,706.639C140.515,711.109 139.505,715.549 138.69,720.026C138.471,721.219 138.294,722.744 138.834,723.701C141.133,727.772 144.285,731.016 149.063,732.133C154.094,733.309 154.431,733.064 155.84,727.976C155.991,727.427 156.281,726.912 156.65,726.044C157.483,728.035 157.743,730.535 158.895,731.055C161.616,732.275 163.844,730.192 165.868,728.455C167.428,727.116 167.011,725.793 165.948,724.292C162.015,718.752 159.548,712.613 158.795,705.835C157.403,693.423 155.808,681.029 154.712,668.591C153.515,655.012 151.497,641.427 153.941,627.751C154.594,624.111 155.043,620.391 155.072,616.698C155.167,604.523 155.214,592.436 158.251,580.438C161.779,566.507 163.563,552.181 168.84,538.629C171.106,532.817 171.768,526.356 172.953,520.151C173.659,516.443 172.962,512.124 174.619,508.995C183.778,491.72 187.247,473.145 188.003,453.938C188.414,443.568 188.112,433.171 188.089,422.789C188.086,420.789 188.145,418.732 187.716,416.8C186.263,410.2 184.913,403.549 182.948,397.097C180.307,388.428 180.416,379.875 182.094,371.068C184.336,359.276 185.323,347.349 183.663,335.354C182.62,327.817 181.169,320.315 180.537,312.743C179.636,302.001 179.275,291.211 178.817,280.436C178.776,279.526 179.503,278.116 180.28,277.715C183.556,276.013 187.063,274.76 190.331,273.049C194.03,271.114 197.924,269.294 201.083,266.647C206.022,262.508 208.794,256.702 211.429,250.873C213.621,246.022 214.032,241.123 212.939,236C211.863,230.96 210.162,230.073 205.31,232.047C200.908,233.835 196.58,235.847 192.065,237.291C188.674,238.379 186.012,239.974 183.97,242.958C181.674,246.317 179.166,249.611 174.477,251.296C175.39,249.999 175.887,249.094 176.566,248.362C181.542,243.035 186.402,237.59 191.581,232.47C202.111,222.055 212.895,211.897 223.433,201.489C234.256,190.805 243.11,178.547 251.655,166.008C260.181,153.493 268.2,140.895 269.937,125.34C271.261,113.474 271.6,101.674 268.711,89.9833" style="fill:black;stroke-width:0;stroke:black;"/>
</svg>
