<?xml version="1.0" standalone="no"?>
<!DOCTYPE svg PUBLIC "-//W3C//DTD SVG 1.1//EN" "http://www.w3.org/Graphics/SVG/1.1/DTD/svg11.dtd">
<svg width="100%" height="100%" viewBox="0 0 2777 4166" version="1.1" xmlns="http://www.w3.org/2000/svg" xmlns:xlink="http://www.w3.org/1999/xlink" xml:space="preserve" style="fill-rule:evenodd;clip-rule:evenodd;stroke-linejoin:round;stroke-miterlimit:1.41421;">
    <g>
        <path d="M2430.54,2083.33L2430.54,2462.13L2777.78,2651.51L2777.78,2272.72L2777.78,1893.94L2430.54,2083.33Z" style="fill:rgb(151,115,58);fill-rule:nonzero;"/>
        <path d="M2430.54,2462.13L2777.78,2651.51L2430.54,2840.9L2430.54,2462.13Z" style="fill:rgb(121,84,36);fill-rule:nonzero;"/>
        <path d="M2083.32,3030.31L1736.11,2840.9L2083.32,2651.51L2083.32,3030.31Z" style="fill:rgb(183,141,61);fill-rule:nonzero;"/>
        <path d="M2083.32,3030.31L2083.32,3409.1L2430.54,3598.5L2430.54,3219.71L2430.54,2840.9L2083.32,3030.31Z" style="fill:rgb(193,157,82);fill-rule:nonzero;"/>
        <path d="M2083.32,3409.1L2430.54,3598.5L2083.32,3787.87L2083.32,3409.1Z" style="fill:rgb(157,115,47);fill-rule:nonzero;"/>
        <path d="M1736.11,2840.9L1736.11,3977.29L2083.32,3787.87L2083.32,3409.1L2083.32,3030.31L1736.11,2840.9Z" style="fill:rgb(165,133,69);fill-rule:nonzero;"/>
        <path d="M1388.87,1136.37L1388.87,1515.17L1736.11,1704.54L1736.11,1325.76L1736.11,946.972L1388.87,1136.37Z" style="fill:rgb(240,217,138);fill-rule:nonzero;"/>
        <path d="M1041.65,1325.76L1041.65,1704.54L1388.87,1515.17L1388.87,1136.37L1041.65,1325.76Z" style="fill:rgb(207,168,74);fill-rule:nonzero;"/>
        <path d="M1388.87,1515.17L1041.65,1704.54L1388.87,1893.94L1736.11,1704.54L1388.87,1515.17Z" style="fill:rgb(216,176,108);fill-rule:nonzero;"/>
        <path d="M2430.54,1704.54L2083.32,1893.94L2083.32,3030.31L2430.54,2840.9L2430.54,2462.13L2430.54,2083.33L2777.78,1893.94L2777.78,1515.17L2430.54,1704.54Z" style="fill:rgb(199,162,76);fill-rule:nonzero;"/>
        <path d="M2430.54,1325.76L2083.32,1515.17L2083.32,1136.37L2083.32,757.583L1736.11,946.972L1736.11,2083.33L2083.32,1893.94L2430.54,1704.54L2777.78,1515.17L2777.78,1136.37L2430.54,1325.76Z" style="fill:rgb(231,184,92);fill-rule:nonzero;"/>
        <path d="M1736.11,2083.33L1736.11,2462.13L2083.32,2272.72L2083.32,1893.94L1736.11,2083.33Z" style="fill:rgb(236,203,154);fill-rule:nonzero;"/>
        <path d="M1388.87,1893.94L1041.65,2083.33L1041.65,2462.13L1388.87,2272.72L1388.87,2651.51L1736.11,2462.13L1736.11,2083.33L1736.11,1704.54L1388.87,1893.94Z" style="fill:rgb(243,202,114);fill-rule:nonzero;"/>
        <path d="M1041.65,2462.13L1041.65,2840.9L1388.87,3030.31L1388.87,2651.51L1388.87,2272.72L1041.65,2462.13Z" style="fill:rgb(193,164,112);fill-rule:nonzero;"/>
        <path d="M1041.65,2840.9L1388.87,3030.31L1041.65,3219.71L1041.65,2840.9Z" style="fill:rgb(140,100,71);fill-rule:nonzero;"/>
        <path d="M1388.87,2651.51L1388.87,3030.31L1041.65,3219.71L1041.65,3598.5L1388.87,3409.1L1736.11,3219.71L1736.11,2840.9L1736.11,2462.13L1388.87,2651.51Z" style="fill:rgb(227,176,76);fill-rule:nonzero;"/>
        <path d="M2777.78,3787.87L2430.54,3598.5L2777.78,3409.1L2777.78,3787.87Z" style="fill:rgb(195,150,97);fill-rule:nonzero;"/>
        <path d="M2430.54,3598.5L2083.32,3787.87L2083.32,4166.67L2430.54,3977.29L2777.78,3787.87L2430.54,3598.5Z" style="fill:rgb(201,145,75);fill-rule:nonzero;"/>
        <path d="M694.444,2272.72L694.444,3030.31L1041.65,3219.71L1041.65,2840.9L1041.65,2462.13L1041.65,2083.33L694.444,2272.72Z" style="fill:rgb(130,92,36);fill-rule:nonzero;"/>
        <path d="M1388.87,3409.1L1041.65,3598.5L694.444,3787.87L694.444,4166.67L1041.65,3977.29L1388.87,3787.87L1736.11,3598.5L1736.11,3219.71L1388.87,3409.1Z" style="fill:rgb(183,145,63);fill-rule:nonzero;"/>
        <path d="M2430.54,189.403L2430.54,1325.76L2777.78,1136.37L2777.78,757.583L2777.78,378.792L2777.78,0L2430.54,189.403Z" style="fill:rgb(195,155,87);fill-rule:nonzero;"/>
        <path d="M2083.32,378.792L2083.32,757.583L2430.54,568.181L2430.54,189.403L2083.32,378.792Z" style="fill:rgb(200,151,52);fill-rule:nonzero;"/>
        <path d="M1736.11,568.181L1388.87,757.583L1736.11,946.972L2083.32,757.583L2083.32,378.792L1736.11,568.181Z" style="fill:rgb(181,146,77);fill-rule:nonzero;"/>
        <path d="M1388.87,757.583L1736.11,946.972L1388.87,1136.37L1388.87,757.583Z" style="fill:rgb(201,169,117);fill-rule:nonzero;"/>
        <path d="M347.208,189.403L347.208,946.972L694.444,757.583L694.444,378.792L694.444,0L347.208,189.403Z" style="fill:rgb(157,115,47);fill-rule:nonzero;"/>
        <path d="M1041.65,946.972L694.444,1136.37L1041.65,1325.76L1388.87,1136.37L1388.87,757.583L1041.65,946.972Z" style="fill:rgb(219,164,78);fill-rule:nonzero;"/>
        <path d="M1736.11,568.181L1388.87,378.792L1041.65,568.181L694.444,757.583L347.222,946.972L694.444,1136.37L1041.65,946.972L1388.87,757.583L1736.11,568.181Z" style="fill:rgb(144,104,60);fill-rule:nonzero;"/>
        <path d="M347.208,1704.54L347.208,2462.13L694.444,2272.72L694.444,1893.94L694.444,1515.17L347.208,1704.54Z" style="fill:rgb(207,178,90);fill-rule:nonzero;"/>
        <path d="M347.208,0L2.27374e-13,0L347.208,189.403L694.444,0L347.208,0Z" style="fill:rgb(233,195,121);fill-rule:nonzero;"/>
        <path d="M694.444,1515.17L694.444,2272.72L1041.65,2083.33L1041.65,1704.54L1041.65,1325.76L694.444,1515.17Z" style="fill:rgb(183,137,44);fill-rule:nonzero;"/>
        <path d="M1736.11,189.403L1388.87,378.792L1736.11,568.181L2083.32,378.792L2430.54,189.403L2083.32,0L1736.11,189.403Z" style="fill:rgb(220,187,86);fill-rule:nonzero;"/>
        <path d="M347.208,946.972L2.27374e-13,1136.37L347.208,1325.76L694.444,1136.37L347.208,946.972Z" style="fill:rgb(205,168,68);fill-rule:nonzero;"/>
        <path d="M694.444,1136.37L347.208,1325.76L694.444,1515.17L1041.65,1325.76L694.444,1136.37Z" style="fill:rgb(239,178,44);fill-rule:nonzero;"/>
        <path d="M2.27374e-13,378.792L2.27374e-13,1136.37L347.208,946.972L347.208,568.181L347.208,189.403L2.27374e-13,378.792Z" style="fill:rgb(226,186,61);fill-rule:nonzero;"/>
    </g>
</svg>
