<?xml version="1.0" standalone="no"?><!DOCTYPE svg PUBLIC "-//W3C//DTD SVG 1.1//EN" "http://www.w3.org/Graphics/SVG/1.1/DTD/svg11.dtd"><svg width="100%" height="100%" viewBox="0 0 873 959" version="1.1" xmlns="http://www.w3.org/2000/svg" xmlns:xlink="http://www.w3.org/1999/xlink" xml:space="preserve" style="fill-rule:evenodd;clip-rule:evenodd;stroke-linejoin:round;stroke-miterlimit:1.41421;"><g><path d="M437.083,379.454c-0.003,-0.005 -0.005,-0.008 -0.008,-0.014c-0.003,-0.002 -0.006,-0.005 -0.006,-0.008c0.011,0 0.02,-0.003 0.031,-0.003l0.005,0.02l-0.022,0.005ZM436.961,378.852l-0.416,-0.108c-0.014,-0.017 -0.027,-0.036 -0.041,-0.056c0.158,0.045 0.309,0.086 0.448,0.128l0.009,0.036ZM436.707,377.844l-2.073,-1.652c-0.083,-0.109 -0.17,-0.223 -0.256,-0.337c0.922,0.766 1.694,1.409 2.312,1.925l0.017,0.064ZM435.757,374.069l-104.703,-201.561c0,0 -6.865,-16.806 -16.14,-24.886c-9.272,-8.071 -28.864,-12.074 -28.864,-12.074l-16.192,-3.661l-30.795,-76.52l78.629,38.484l6.842,34.383c0,0 1.658,11.693 5.611,21.81c3.951,10.124 2.731,10.367 8.361,22.592c23.607,51.202 83.446,173.082 97.114,200.887l0.137,0.546Z" style="fill:url(#_Radial1);"/><path d="M437.047,379.46c-0.008,-0.006 -0.02,-0.011 -0.031,-0.02c0.017,-0.002 0.034,-0.005 0.053,-0.008c0,0.003 0.003,0.006 0.006,0.008c0.003,0.006 0.005,0.009 0.008,0.014l-0.036,0.006ZM436.529,378.741l-1.43,-0.373c-0.092,-0.05 -0.186,-0.103 -0.284,-0.156c0.638,0.178 1.195,0.337 1.669,0.471l0.045,0.058ZM434.358,375.974l-178.105,-141.922c0,0 -13.106,-12.56 -24.866,-16.162c-3.465,-1.064 -7.606,-1.44 -11.721,-1.44c-9.848,0 -19.555,2.148 -19.555,2.148l-16.031,3.187l-59.728,-57.839l87.332,3.171l20.601,29.145c0,0 6.277,10.002 14.002,17.641c7.726,7.639 6.706,8.364 16.825,17.235c42.697,37.445 148.147,125.445 170.937,144.441l0.309,0.395Z" style="fill:url(#_Radial2);"/><path d="M436.933,379.479c-0.031,-0.002 -0.07,-0.008 -0.109,-0.011c0.064,-0.008 0.128,-0.019 0.192,-0.028c0.011,0.009 0.023,0.014 0.031,0.02l-0.114,0.019ZM434.924,378.323l-221.975,-57.624c0,0 -13.59,-4.884 -25.189,-4.884c-1.404,0 -2.78,0.072 -4.098,0.234c-12.209,1.49 -28.29,13.367 -28.29,13.367l-12.941,9.15l-78.715,-28.775l80.69,-32.469l31.28,18.606c0,0 9.798,6.589 19.967,10.425c10.167,3.834 9.529,4.907 22.384,8.899c55.367,17.193 191.921,55.922 216.555,62.896l0.332,0.175Z" style="fill:url(#_Radial3);"/><path d="M67.644,467.695l60.085,-62.049l36.787,4.349c0,0 8.715,1.524 18.093,1.524c1.457,0 2.931,-0.036 4.388,-0.122c2.622,-0.154 4.6,-0.195 6.285,-0.195c1.092,0 2.062,0.016 3.001,0.036c0.936,0.019 1.844,0.036 2.817,0.036c2.755,0 6.026,-0.145 11.963,-0.85c59.689,-7.057 208.499,-28.473 225.73,-30.95l0.123,0.008l-228.28,37.988c0,0 -18.104,1.343 -28.649,7.665c-10.545,6.324 -20.405,23.72 -20.405,23.72l-7.77,13.067l-84.168,5.773Z" style="fill:url(#_Radial4);"/><path d="M135.46,610.344l29.413,-80.461l35.837,-11.131c0,0 11.454,-2.878 21.105,-7.865c9.656,-4.99 10.027,-3.797 21.592,-10.682c49.94,-29.705 170.518,-105.539 191.796,-118.934c-0.109,0.1 -0.226,0.209 -0.346,0.32l-190.801,126.039c0,0 -15.995,8.59 -23.055,18.653c-7.063,10.072 -8.993,29.97 -8.993,29.97l-1.708,14.432l-74.84,39.659Z" style="fill:url(#_Radial5);"/><path d="M255.434,713.075l-5.812,-84.802l28.382,-24.894c0,0 9.3,-7.285 16.087,-15.769c6.789,-8.484 7.614,-7.545 15.382,-18.536c32.672,-46.226 108.782,-159.706 125.624,-184.85c-0.095,0.223 -0.193,0.454 -0.296,0.691l-121.715,190.676c0,0 -11.122,14.348 -13.473,26.423c-2.357,12.067 3.967,31.029 3.967,31.029l4.135,13.306l-52.281,66.726ZM435.133,381.41l0.279,-0.27c0.523,-0.332 0.98,-0.619 1.373,-0.867c-0.008,0.02 -0.017,0.042 -0.025,0.062l-1.627,1.075Z" style="fill:url(#_Radial6);"/><path d="M406.818,758.132l-39.554,-74.642l15.78,-34.244c0,0 5.531,-10.433 8.281,-20.94c2.75,-10.517 3.886,-9.991 6.511,-23.191c10.913,-54.847 33.853,-186.895 39.381,-218.835c0.005,0.307 0.008,0.627 0.014,0.956l-33.444,222.359c0,0 -4.324,17.636 -1.563,29.621c2.752,11.983 16.251,26.733 16.251,26.733l8.915,10.163l-20.572,82.02ZM435.152,384.366l0.226,-0.56c0.705,-1.053 1.293,-1.933 1.761,-2.633c0.003,0.025 0.003,0.05 0.003,0.078l-1.99,3.115ZM436.777,380.324l0.022,-0.059c0.114,-0.072 0.223,-0.139 0.323,-0.203c0,0.011 0,0.022 0.003,0.033l-0.348,0.229Z" style="fill:url(#_Radial7);"/><path d="M563.448,737.721l-66.275,-51.93l0.488,-37.358c0,0 0.799,-11.782 -0.961,-22.5c-1.761,-10.724 -0.51,-10.71 -3.483,-23.835c-12.348,-54.591 -45.151,-184.748 -53.052,-216.018c0.119,0.261 0.245,0.526 0.37,0.802l59.942,216.893c0,0 3.227,17.861 10.618,27.688c7.394,9.829 25.718,17.814 25.718,17.814l12.145,5.597l14.49,82.847ZM437.367,386.33l-0.028,-0.757c0.29,-1.675 0.527,-3.043 0.705,-4.074c0.011,0.028 0.025,0.056 0.037,0.081l-0.714,4.75ZM437.178,381.193l-0.003,-0.07c0.148,-0.226 0.284,-0.429 0.41,-0.613c0.002,0.009 0.008,0.017 0.011,0.025l-0.418,0.658ZM437.136,380.087l0,-0.034c0.064,-0.039 0.123,-0.078 0.184,-0.117c0.003,0.009 0.006,0.014 0.008,0.023l-0.192,0.128Z" style="fill:url(#_Radial8);"/><path d="M698.224,655.362l-81.665,-20.481l-14.529,-33.806c0,0 -4.057,-11.097 -10.025,-20.174c-5.97,-9.08 -4.825,-9.57 -12.88,-20.352c-33.962,-45.485 -118.742,-153.412 -137.136,-176.796c0.176,0.151 0.354,0.307 0.535,0.465l143.915,174.904c0,0 10.216,15.009 20.965,20.982c10.208,5.67 28.75,5.815 30.591,5.815c0.1,0 0.151,0 0.151,0l13.493,0.175l46.585,69.268ZM440.293,386.004l-0.304,-0.624c-0.468,-1.844 -0.836,-3.301 -1.098,-4.335c0.014,0.014 0.028,0.025 0.042,0.036l1.36,4.923ZM438.092,381.513l-0.037,-0.078c0.062,-0.37 0.12,-0.694 0.168,-0.975c0.008,0.008 0.016,0.014 0.025,0.022l-0.156,1.031ZM437.607,380.521l-0.014,-0.025c0.089,-0.133 0.173,-0.256 0.248,-0.367c0.003,0.002 0.006,0.005 0.011,0.008l-0.245,0.384ZM437.328,379.959l-0.008,-0.023c0.061,-0.039 0.12,-0.075 0.175,-0.108c0.006,0.002 0.009,0.008 0.014,0.011l-0.181,0.12Z" style="fill:url(#_Radial9);"/><path d="M704.638,539.868l-26.526,-24.515c0,0 -8.214,-8.486 -17.36,-14.348c-9.147,-5.865 -8.3,-6.781 -20.04,-13.362c-50.966,-28.535 -177.966,-95.587 -199.232,-106.804c0.131,0.042 0.264,0.084 0.404,0.125l204.929,102.405c0,0 15.435,9.559 27.682,10.64c0.753,0.067 1.527,0.098 2.318,0.098c12.098,0 28.131,-7.289 28.131,-7.289l12.752,-5.48l70.159,43.975l-83.217,14.555ZM442.017,383.603l-0.423,-0.354c-1.103,-1.401 -1.934,-2.457 -2.466,-3.134c0.008,0.002 0.017,0.005 0.025,0.008l2.864,3.48ZM438.914,381.009l-0.039,-0.033c-0.104,-0.41 -0.19,-0.753 -0.26,-1.02c0.003,0 0.006,0.003 0.009,0.003l0.29,1.05ZM438.251,380.454l-0.023,-0.019c0.036,-0.22 0.07,-0.41 0.098,-0.568c0.003,0 0.008,0.002 0.014,0.002l-0.089,0.585ZM437.858,380.126l-0.011,-0.009c0.083,-0.122 0.156,-0.234 0.22,-0.328c0.002,0 0.005,0 0.008,0l-0.217,0.337ZM437.512,379.836l-0.014,-0.011c0.081,-0.05 0.156,-0.098 0.226,-0.142c0.005,0 0.011,0.003 0.017,0.003l-0.229,0.15Z" style="fill:url(#_Radial10);"/><path d="M746.304,417.481l-33.547,-11.386c0,0 -10.955,-4.408 -21.701,-6.043c-10.738,-1.639 -10.339,-2.82 -23.74,-4.054c-61.453,-5.645 -217.949,-16.039 -228.338,-16.73c0.014,-0.003 0.03,-0.003 0.047,-0.006l232.13,10.348c0,0 5.472,0.746 12.328,0.746c5.578,0 12.072,-0.493 17.288,-2.284c11.629,-3.996 24.888,-18.957 24.888,-18.957l9.818,-10.62l81.364,11.548l-70.537,47.438ZM441.385,380.714l-0.307,-0.087c-1.212,-0.638 -2.028,-1.07 -2.404,-1.267l2.711,1.354ZM439.109,380.067l-0.023,-0.005c-0.209,-0.265 -0.367,-0.468 -0.476,-0.608l0.128,0.162l0.371,0.451ZM438.613,379.925l-0.006,0c-0.019,-0.078 -0.036,-0.15 -0.053,-0.214l0.059,0.214ZM438.342,379.85l-0.013,-0.006c0.041,-0.239 0.072,-0.412 0.089,-0.51l-0.076,0.516ZM438.083,379.775l-0.005,0c0.033,-0.053 0.067,-0.103 0.097,-0.148l0.109,-0.167l0.078,-0.12l-0.078,0.12l-0.201,0.315ZM437.749,379.68l-0.014,-0.003c0.201,-0.128 0.359,-0.228 0.476,-0.301c0.009,-0.008 0.02,-0.014 0.031,-0.019c-0.011,0.005 -0.022,0.011 -0.031,0.019l-0.462,0.304Z" style="fill:url(#_Radial11);"/><path d="M437.225,379.429c0.014,-0.005 0.028,-0.017 0.042,-0.025c0.343,-0.047 0.61,-0.086 0.802,-0.114l0.179,-0.025c0.1,-0.017 0.159,-0.025 0.181,-0.025l0.005,-0.006l-0.618,-0.159c0.005,-0.002 0.011,-0.008 0.017,-0.011c0.395,0.112 0.601,0.17 0.601,0.17l-0.005,-0.005c-0.02,-0.012 -0.064,-0.048 -0.137,-0.115l-0.061,-0.053l-0.156,-0.128l-0.011,-0.005l0.003,-0.003c0.061,0.053 0.117,0.097 0.164,0.136l0.061,0.053c0.073,0.067 0.117,0.103 0.137,0.115c-0.003,-0.012 -0.011,-0.025 -0.025,-0.056c-0.02,-0.036 -0.048,-0.098 -0.092,-0.178c-0.025,-0.048 -0.05,-0.104 -0.084,-0.168c0.034,0.064 0.059,0.12 0.084,0.168c0.044,0.08 0.072,0.142 0.092,0.178c0.014,0.031 0.022,0.044 0.025,0.056l0.005,0.005l0.003,-0.008l-0.003,0.008l-0.011,0.075l-0.003,0c0.009,-0.05 0.014,-0.075 0.014,-0.075l-0.005,0.006c-0.009,0.011 -0.022,0.039 -0.048,0.075c0.026,-0.036 0.039,-0.064 0.048,-0.075c-0.014,0.008 -0.045,0.028 -0.098,0.058c-0.014,0.009 -0.028,0.02 -0.044,0.031c0.016,-0.011 0.03,-0.022 0.044,-0.031c0.053,-0.03 0.084,-0.05 0.098,-0.058c-0.022,0 -0.081,0.008 -0.181,0.025l-0.179,0.025l-0.844,0.139ZM438.797,379.256c-0.07,-0.005 -0.129,-0.008 -0.179,-0.013l0.201,0.011l-0.022,0.002ZM438.877,379.073l216.378,-85.015c0,0 17.429,-5.07 26.429,-13.454c8.999,-8.377 15.025,-27.442 15.025,-27.442l4.864,-14.329l78.593,-22.42l-45.5,72.594l-34.7,3.19c0,0 -11.805,0.427 -22.281,3.302c-10.478,2.875 -10.595,1.627 -23.341,5.956c-58.575,19.882 -206.345,74.255 -215.467,77.618ZM438.501,379.059l0.031,-0.081l0.159,-0.426c0.005,-0.003 0.011,-0.006 0.016,-0.012c-0.092,0.229 -0.158,0.402 -0.206,0.519ZM438.693,378.981l0.162,-0.159l0.88,-0.895c0.037,-0.022 0.073,-0.044 0.109,-0.064c-0.529,0.516 -0.916,0.892 -1.151,1.118ZM438.423,378.969c-0.005,-0.055 -0.005,-0.128 -0.011,-0.2l-0.003,-0.05l0.003,0c0.006,0.097 0.008,0.181 0.011,0.25Z" style="fill:url(#_Radial12);"/><path d="M437.15,379.443c0.006,-0.008 0.011,-0.017 0.017,-0.025c0.033,-0.003 0.069,-0.008 0.1,-0.014c-0.014,0.008 -0.028,0.02 -0.042,0.025l-0.075,0.014ZM437.807,379.073l-0.334,-0.087c0.003,-0.008 0.009,-0.014 0.014,-0.019c0.123,0.036 0.234,0.067 0.337,0.094l-0.017,0.012ZM438.053,378.917l-0.34,-0.271c0,-0.002 0.003,-0.008 0.005,-0.011c0.131,0.109 0.243,0.201 0.337,0.282l-0.002,0ZM438.223,378.814l-0.268,-0.513c0.003,-0.006 0.006,-0.009 0.009,-0.014c0.103,0.209 0.189,0.384 0.256,0.527l0.003,0ZM438.409,378.694l-0.058,-0.956c0.008,-0.011 0.017,-0.022 0.022,-0.033c0.017,0.409 0.031,0.738 0.039,0.986l-0.003,0.003ZM438.707,378.507l1.026,-2.733c0.061,-0.087 0.128,-0.181 0.192,-0.273c-0.546,1.359 -0.95,2.371 -1.198,2.995l-0.02,0.011ZM439.905,377.755l161.958,-164.521c0,0 13.857,-11.723 18.677,-23.043c4.812,-11.312 2.564,-31.179 2.564,-31.179l-1.446,-15.719l62.513,-52.314l-12.136,85.518l-30.084,16.85c0,0 -10.606,5.191 -19.009,12.075c-8.403,6.893 -9.016,5.798 -18.898,14.936c-43.669,40.362 -149.679,143.383 -163.999,157.31l-0.14,0.087Z" style="fill:url(#_Radial13);"/><path d="M437.125,379.446l0.003,-0.02l0,-0.002c0.014,0 0.025,-0.003 0.039,-0.006c-0.006,0.008 -0.011,0.017 -0.017,0.025l-0.025,0.003ZM437.47,378.983l-0.245,-0.064c0,-0.008 0.003,-0.016 0.003,-0.025c0.092,0.025 0.176,0.048 0.254,0.073l-0.012,0.016ZM437.702,378.638l-0.365,-0.293c0.002,-0.008 0.002,-0.013 0.005,-0.022c0.134,0.112 0.257,0.212 0.368,0.304l-0.008,0.011Z" style="fill:url(#_Radial14);"/><path d="M437.944,378.279l-0.432,-0.828c0.006,-0.019 0.009,-0.036 0.011,-0.056c0.165,0.335 0.31,0.624 0.429,0.87l-0.008,0.014ZM438.348,377.677l-0.206,-3.413c0.028,-0.139 0.056,-0.284 0.083,-0.429c0.062,1.618 0.112,2.9 0.148,3.806l-0.025,0.036ZM439.866,375.417l80.348,-214.31c0,0 7.89,-16.343 7.69,-28.638c-0.207,-12.295 -10.337,-29.532 -10.337,-29.532l-7.965,-14.223l35.862,-73.276l23.86,83.643l-20.575,27.557c0,0 -7.578,9.057 -12.454,18.767c-4.875,9.709 -5.876,8.963 -11.194,21.33c-22.74,52.938 -75.026,183.41 -85.006,208.34l-0.229,0.342Z" style="fill:url(#_Radial15);"/><path d="M437.105,379.449l-0.005,-0.02c0.008,-0.003 0.019,-0.003 0.028,-0.005l0,0.002l-0.003,0.02l-0.02,0.003ZM437.214,378.919l-0.248,-0.067c-0.003,-0.011 -0.005,-0.022 -0.008,-0.036c0.092,0.028 0.178,0.05 0.262,0.075l-0.006,0.028ZM437.317,378.332l-0.574,-0.457c-0.005,-0.023 -0.008,-0.042 -0.014,-0.064c0.218,0.181 0.415,0.348 0.594,0.495l-0.006,0.026Z" style="fill:url(#_Radial16);"/><path d="M437.482,377.39l-1.516,-2.917c-0.034,-0.151 -0.067,-0.301 -0.103,-0.457c0.668,1.359 1.215,2.471 1.63,3.315l-0.011,0.059ZM438.111,373.773l-13.688,-227.073c0,0 0.56,-18.137 -4.627,-29.293c-5.183,-11.147 -21.453,-22.767 -21.453,-22.767l-13.293,-9.926l2.973,-81.876l56.081,67.023l-7.631,33.744c0,0 -3.237,11.356 -3.747,22.214c-0.505,10.851 -1.725,10.576 -1.547,24.032c0.739,56.611 5.871,193.173 7.024,223.396l-0.092,0.526Z" style="fill:url(#_Radial17);"/><path d="M438.228,378.827c-0.003,-0.002 -0.003,-0.008 -0.005,-0.013l-0.003,0l0.189,-0.12l0,0.025c-0.061,0.039 -0.122,0.075 -0.181,0.108ZM437.964,378.287c-0.003,-0.006 -0.009,-0.014 -0.012,-0.022l0.396,-0.588l0.003,0.061c-0.142,0.198 -0.27,0.382 -0.387,0.549Z" style="fill:url(#_Radial18);"/><path d="M438.434,379.234l-0.005,-0.005c-0.003,-0.012 -0.011,-0.025 -0.025,-0.056c-0.02,-0.036 -0.048,-0.098 -0.092,-0.178c-0.025,-0.048 -0.05,-0.104 -0.084,-0.168c0.059,-0.033 0.12,-0.069 0.181,-0.108l0.003,0.05c0.006,0.072 0.006,0.145 0.011,0.2l0.003,0.079l0.003,0.066l0.008,0.112l-0.003,0.008Z" style="fill:url(#_Radial19);"/><path d="M438.22,378.814c-0.067,-0.143 -0.153,-0.318 -0.256,-0.527c0.117,-0.167 0.245,-0.351 0.387,-0.549l0.058,0.956l-0.189,0.12Z" style="fill:url(#_Radial20);"/><path d="M437.523,377.395c-0.011,-0.022 -0.019,-0.044 -0.03,-0.064l0.618,-3.558l0.031,0.491c-0.251,1.262 -0.457,2.312 -0.619,3.131ZM435.863,374.016c-0.078,-0.159 -0.162,-0.326 -0.243,-0.493l-55.317,-219.95c0,0 -2.806,-17.931 -9.969,-27.93c-7.157,-9.996 -25.294,-18.405 -25.294,-18.405l-27.348,-13.387l-13.892,-69.802l81.25,60.665l-0.883,24.277c0,0 -1.078,11.76 0.429,22.522c1.513,10.76 0.265,10.716 2.931,23.905c11.25,55.724 41.78,189.86 48.336,218.598Z" style="fill:url(#_Radial21);"/><path d="M435.62,373.523c-13.668,-27.805 -73.507,-149.685 -97.114,-200.887c-5.63,-12.225 -4.41,-12.468 -8.361,-22.592c-3.953,-10.117 -5.611,-21.81 -5.611,-21.81l-6.842,-34.383l27.348,13.387c0,0 18.137,8.409 25.294,18.405c7.163,9.999 9.969,27.93 9.969,27.93l55.317,219.95Z" style="fill:url(#_Radial22);"/><path d="M437.952,378.265c-0.119,-0.246 -0.264,-0.535 -0.429,-0.87c0.162,-0.819 0.368,-1.869 0.619,-3.131l0.206,3.413l-0.396,0.588Z" style="fill:url(#_Radial23);"/><path d="M437.493,377.331c-0.415,-0.844 -0.962,-1.956 -1.63,-3.315c-6.556,-28.738 -37.086,-162.874 -48.336,-218.598c-2.666,-13.189 -1.418,-13.145 -2.931,-23.905c-1.507,-10.762 -0.429,-22.522 -0.429,-22.522l0.883,-24.277l13.293,9.926c0,0 16.27,11.62 21.453,22.767c5.187,11.156 4.627,29.293 4.627,29.293l13.688,227.073l-0.618,3.558Z" style="fill:url(#_Radial24);"/><path d="M438.067,378.925c-0.003,-0.003 -0.009,-0.006 -0.012,-0.008l0.165,-0.103l0.003,0c0.002,0.005 0.002,0.011 0.005,0.013c-0.056,0.034 -0.108,0.067 -0.161,0.098ZM437.718,378.635c-0.002,-0.003 -0.005,-0.005 -0.008,-0.008l0.234,-0.348l0.011,0.022c-0.086,0.12 -0.164,0.231 -0.237,0.334Z" style="fill:url(#_Radial25);"/><path d="M438.429,379.229c-0.02,-0.012 -0.064,-0.048 -0.137,-0.115l-0.061,-0.053c-0.047,-0.039 -0.103,-0.083 -0.164,-0.136c0.053,-0.031 0.105,-0.064 0.161,-0.098c0.034,0.064 0.059,0.12 0.084,0.168c0.044,0.08 0.072,0.142 0.092,0.178c0.014,0.031 0.022,0.044 0.025,0.056Z" style="fill:url(#_Radial26);"/><path d="M438.055,378.917c-0.094,-0.081 -0.206,-0.173 -0.337,-0.282c0.073,-0.103 0.151,-0.214 0.237,-0.334l0.268,0.513l-0.168,0.103Z" style="fill:url(#_Radial27);"/><path d="M437.342,378.323c-0.005,-0.005 -0.014,-0.014 -0.019,-0.017l0.159,-0.916l0.03,0.061c-0.064,0.329 -0.12,0.619 -0.17,0.872ZM436.729,377.811c-0.014,-0.012 -0.025,-0.02 -0.039,-0.031l-0.933,-3.711l0.209,0.404c0.318,1.39 0.574,2.513 0.763,3.338ZM434.378,375.855c-0.106,-0.092 -0.217,-0.184 -0.329,-0.276l-140.724,-179.365c0,0 -9.855,-15.245 -20.467,-21.464c-10.606,-6.215 -30.602,-6.525 -30.602,-6.525l-30.572,-1.108l-40.71,-57.6l98.884,22.37l8.865,22.026c0,0 3.792,11.184 9.55,20.394c5.759,9.22 4.603,9.685 12.398,20.656c33.364,46.915 117.484,159.244 133.707,180.892Z" style="fill:url(#_Radial28);"/><path d="M436.69,377.78c-0.618,-0.516 -1.39,-1.159 -2.312,-1.925c-16.223,-21.648 -100.343,-133.977 -133.707,-180.892c-7.795,-10.971 -6.639,-11.436 -12.398,-20.656c-5.758,-9.21 -9.55,-20.394 -9.55,-20.394l-8.865,-22.026l16.192,3.661c0,0 19.592,4.003 28.864,12.074c9.275,8.08 16.14,24.886 16.14,24.886l104.703,201.561l0.933,3.711Z" style="fill:url(#_Radial29);"/><path d="M434.049,375.579c-22.79,-18.996 -128.24,-106.996 -170.937,-144.441c-10.119,-8.871 -9.099,-9.596 -16.825,-17.235c-7.725,-7.639 -14.002,-17.641 -14.002,-17.641l-20.601,-29.145l30.572,1.108c0,0 19.996,0.31 30.602,6.525c10.612,6.219 20.467,21.464 20.467,21.464l140.724,179.365Z" style="fill:url(#_Radial30);"/><path d="M437.71,378.627c-0.111,-0.092 -0.234,-0.192 -0.368,-0.304c0.05,-0.253 0.106,-0.543 0.17,-0.872l0.432,0.828l-0.234,0.348Z" style="fill:url(#_Radial31);"/><path d="M437.323,378.306c-0.179,-0.147 -0.376,-0.314 -0.594,-0.495c-0.189,-0.825 -0.445,-1.948 -0.763,-3.338l1.516,2.917l-0.159,0.916Z" style="fill:url(#_Radial32);"/><path d="M437.833,379.064c-0.003,0 -0.006,-0.003 -0.009,-0.003l0.229,-0.144l0.011,0.011c-0.081,0.047 -0.159,0.094 -0.231,0.136ZM437.487,378.967c-0.003,0 -0.003,0 -0.005,0l0.22,-0.329l0.011,0.008c-0.087,0.12 -0.162,0.226 -0.226,0.321ZM437.228,378.894c-0.003,0 -0.006,-0.003 -0.008,-0.003l0.097,-0.559l0.02,0.013c-0.042,0.212 -0.078,0.396 -0.109,0.549ZM436.958,378.816c-0.003,0 -0.003,0 -0.006,0l-0.245,-0.972l0.036,0.031c0.087,0.379 0.159,0.693 0.215,0.941ZM436.504,378.688c-0.006,0 -0.012,-0.003 -0.02,-0.005l-2.126,-2.709l0.276,0.218c0.822,1.097 1.452,1.939 1.87,2.496ZM434.815,378.212c-0.072,-0.023 -0.147,-0.042 -0.223,-0.064l-203.383,-107.607c0,0 -15.206,-9.915 -27.426,-11.281c-0.981,-0.108 -2,-0.158 -3.045,-0.158c-12.005,0 -27.563,6.644 -27.563,6.644l-28.769,11.576l-60.014,-35.703l99.688,-19.834l16.58,16.056c0,0 8.018,8.668 17.026,14.747c9.007,6.076 8.14,6.976 19.722,13.821c50.882,30.071 178.685,101.369 197.407,111.803Z" style="fill:url(#_Radial33);"/><path d="M436.952,378.816c-0.139,-0.042 -0.29,-0.083 -0.448,-0.128c-0.418,-0.557 -1.048,-1.399 -1.87,-2.496l2.073,1.652l0.245,0.972Z" style="fill:url(#_Radial34);"/><path d="M436.484,378.683c-0.474,-0.134 -1.031,-0.293 -1.669,-0.471c-18.722,-10.434 -146.525,-81.732 -197.407,-111.803c-11.582,-6.845 -10.715,-7.745 -19.722,-13.821c-9.008,-6.079 -17.026,-14.747 -17.026,-14.747l-16.58,-16.056l16.031,-3.187c0,0 9.707,-2.148 19.555,-2.148c4.115,0 8.256,0.376 11.721,1.44c11.76,3.602 24.866,16.162 24.866,16.162l178.105,141.922l2.126,2.709Z" style="fill:url(#_Radial35);"/><path d="M434.592,378.148c-24.634,-6.974 -161.188,-45.703 -216.555,-62.896c-12.855,-3.992 -12.217,-5.065 -22.384,-8.899c-10.169,-3.836 -19.967,-10.425 -19.967,-10.425l-31.28,-18.606l28.769,-11.576c0,0 15.558,-6.644 27.563,-6.644c1.045,0 2.064,0.05 3.045,0.158c12.22,1.366 27.426,11.281 27.426,11.281l203.383,107.607Z" style="fill:url(#_Radial36);"/><path d="M438.434,379.234c0,0 -0.206,-0.058 -0.601,-0.17c0.072,-0.042 0.15,-0.089 0.231,-0.136l0.011,0.005l0.156,0.128l0.061,0.053c0.073,0.067 0.117,0.103 0.137,0.115l0.005,0.005Z" style="fill:url(#_Radial37);"/><path d="M437.824,379.061c-0.103,-0.027 -0.214,-0.058 -0.337,-0.094c0.064,-0.095 0.139,-0.201 0.226,-0.321l0.34,0.271l-0.229,0.144Z" style="fill:url(#_Radial38);"/><path d="M437.482,378.967c-0.078,-0.025 -0.162,-0.048 -0.254,-0.073c0.031,-0.153 0.067,-0.337 0.109,-0.549l0.365,0.293l-0.22,0.329Z" style="fill:url(#_Radial39);"/><path d="M437.22,378.891c-0.084,-0.025 -0.17,-0.047 -0.262,-0.075c-0.056,-0.248 -0.128,-0.562 -0.215,-0.941l0.574,0.457l-0.097,0.559Z" style="fill:url(#_Radial40);"/><path d="M127.729,405.646l-68.705,-8.124l83.407,-58.956l21.054,7.695c0,0 10.849,4.661 21.553,6.55c10.702,1.886 10.273,3.056 23.643,4.603c61.879,7.14 220.437,21.363 228.143,22.054c-0.011,0.003 -0.019,0.003 -0.031,0.006l-232.102,-15.767c0,0 -6.597,-1.055 -14.406,-1.055c-5.06,0 -10.629,0.442 -15.235,1.905c-11.724,3.725 -25.328,18.374 -25.328,18.374l-21.993,22.715ZM437.016,379.44c-0.019,-0.011 -0.042,-0.022 -0.064,-0.036l-0.069,-0.042l-0.176,-0.097l-1.783,-0.942l0.175,0.045c0.875,0.49 1.477,0.824 1.784,0.994l0.069,0.042c0.022,0.014 0.045,0.025 0.064,0.036ZM437.069,379.432c-0.025,-0.033 -0.064,-0.084 -0.117,-0.15c-0.036,-0.045 -0.078,-0.101 -0.122,-0.162l-0.301,-0.379l0.016,0.003c0.112,0.147 0.204,0.273 0.285,0.376c0.044,0.061 0.086,0.117 0.122,0.162c0.053,0.066 0.092,0.117 0.117,0.15ZM437.147,379.309l0.014,-0.086l0.053,-0.304l0.011,0c-0.033,0.165 -0.058,0.296 -0.078,0.39ZM437.521,379.254l0.286,-0.181l0.009,0.002c-0.112,0.067 -0.212,0.126 -0.295,0.179ZM437.055,379.234c-0.014,-0.053 -0.028,-0.122 -0.047,-0.192l-0.047,-0.19l0.005,0c0.036,0.157 0.067,0.285 0.089,0.382ZM437.323,379.198l0.131,-0.189l0.016,-0.026l0.003,0.003c-0.056,0.078 -0.106,0.151 -0.15,0.212Z" style="fill:url(#_Radial41);"/><path d="M437.069,379.432c-0.025,-0.033 -0.064,-0.084 -0.117,-0.15c-0.036,-0.045 -0.078,-0.101 -0.122,-0.162c-0.081,-0.103 -0.173,-0.229 -0.285,-0.376l0.416,0.108l0.047,0.19c0.019,0.07 0.033,0.139 0.047,0.192l0.017,0.078l0.014,0.064l0.014,0.053c-0.011,0 -0.02,0.003 -0.031,0.003Z" style="fill:url(#_Radial42);"/><path d="M437.016,379.44c-0.019,-0.011 -0.042,-0.022 -0.064,-0.036l-0.069,-0.042c-0.307,-0.17 -0.909,-0.504 -1.784,-0.994l1.43,0.373l0.301,0.379c0.044,0.061 0.086,0.117 0.122,0.162c0.053,0.066 0.092,0.117 0.117,0.15c-0.019,0.003 -0.036,0.006 -0.053,0.008Z" style="fill:url(#_Radial43);"/><path d="M436.824,379.468c-7.706,-0.691 -166.264,-14.914 -228.143,-22.054c-13.37,-1.547 -12.941,-2.717 -23.643,-4.603c-10.704,-1.889 -21.553,-6.55 -21.553,-6.55l-21.054,-7.695l12.941,-9.15c0,0 16.081,-11.877 28.29,-13.367c1.318,-0.162 2.694,-0.234 4.098,-0.234c11.599,0 25.189,4.884 25.189,4.884l221.975,57.624l1.783,0.942l0.176,0.097l0.069,0.042c0.022,0.014 0.045,0.025 0.064,0.036c-0.064,0.009 -0.128,0.02 -0.192,0.028Z" style="fill:url(#_Radial44);"/><path d="M182.609,411.519c-9.378,0 -18.093,-1.524 -18.093,-1.524l-36.787,-4.349l21.993,-22.715c0,0 13.604,-14.649 25.328,-18.374c4.606,-1.463 10.175,-1.905 15.235,-1.905c7.809,0 14.406,1.055 14.406,1.055l232.102,15.767c-17.231,2.477 -166.041,23.893 -225.73,30.95c-5.937,0.705 -9.208,0.85 -11.963,0.85c-0.973,0 -1.881,-0.017 -2.817,-0.036c-0.939,-0.02 -1.909,-0.036 -3.001,-0.036c-1.685,0 -3.663,0.041 -6.285,0.195c-1.457,0.086 -2.931,0.122 -4.388,0.122Z" style="fill:url(#_Radial45);"/><path d="M437.267,379.404c0.022,-0.014 0.05,-0.028 0.078,-0.044c0.047,-0.031 0.109,-0.067 0.176,-0.106c0.083,-0.053 0.183,-0.112 0.295,-0.179l0.618,0.159l-0.005,0.006c-0.022,0 -0.081,0.008 -0.181,0.025l-0.179,0.025c-0.192,0.028 -0.459,0.067 -0.802,0.114Z" style="fill:url(#_Radial46);"/><path d="M437.167,379.418c0.025,-0.033 0.058,-0.084 0.1,-0.142c0.017,-0.028 0.033,-0.047 0.056,-0.078c0.044,-0.061 0.094,-0.134 0.15,-0.212l0.334,0.087l-0.286,0.181c-0.067,0.039 -0.129,0.075 -0.176,0.106c-0.028,0.016 -0.056,0.03 -0.078,0.044c-0.031,0.006 -0.067,0.011 -0.1,0.014Z" style="fill:url(#_Radial47);"/><path d="M437.128,379.424l0.019,-0.115c0.02,-0.094 0.045,-0.225 0.078,-0.39l0.245,0.064l-0.016,0.026l-0.131,0.189c-0.023,0.031 -0.039,0.05 -0.056,0.078c-0.042,0.058 -0.075,0.109 -0.1,0.142c-0.014,0.003 -0.025,0.006 -0.039,0.006Z" style="fill:url(#_Radial48);"/><path d="M437.1,379.429l-0.014,-0.053l-0.014,-0.064l-0.017,-0.078c-0.022,-0.097 -0.053,-0.225 -0.089,-0.382l0.248,0.067l-0.053,0.304l-0.014,0.086l-0.019,0.115c-0.009,0.002 -0.02,0.002 -0.028,0.005Z" style="fill:url(#_Radial49);"/><path d="M99.264,550.26l52.548,-88.338l21.812,-1.496c0,0 11.81,-0.156 22.352,-2.783c10.543,-2.63 10.629,-1.379 23.47,-5.414c59.263,-18.58 209.215,-69.847 217.322,-72.613l0.167,-0.059c0.098,-0.033 0.154,-0.053 0.173,-0.058l0.006,-0.003l-0.198,-0.014l0.017,-0.003c0.119,0.012 0.181,0.017 0.181,0.017l-0.006,-0.005c-0.011,-0.006 -0.03,-0.014 -0.061,-0.031c0.031,0.017 0.05,0.025 0.061,0.031c-0.003,-0.012 -0.011,-0.02 -0.025,-0.037c0.014,0.017 0.022,0.025 0.025,0.037l0.006,0.005l0,-0.011l0,0.011l0.022,0.557c-0.005,0.003 -0.008,0.006 -0.014,0.009c-0.005,-0.374 -0.008,-0.566 -0.008,-0.566l-0.006,0.003c-0.005,0.017 -0.017,0.053 -0.042,0.106l-0.055,0.136l-0.212,0.524c-0.003,0.003 -0.008,0.006 -0.014,0.008c0.056,-0.131 0.106,-0.248 0.148,-0.345l0.078,-0.187l0.055,-0.136c0.025,-0.053 0.037,-0.089 0.042,-0.106c-0.011,0.011 -0.039,0.036 -0.083,0.078c-0.025,0.025 -0.064,0.061 -0.103,0.097l-1.51,1.466c-0.07,0.042 -0.137,0.086 -0.209,0.131c0.855,-0.794 1.437,-1.335 1.719,-1.597c0.039,-0.036 0.078,-0.072 0.103,-0.097c0.044,-0.042 0.072,-0.067 0.083,-0.078c-0.019,0.005 -0.075,0.025 -0.173,0.058l-0.167,0.059l-218.403,79.988c0,0 -17.544,4.669 -26.735,12.835c-9.191,8.166 -15.66,27.087 -15.66,27.087l-11.097,30.357l-65.609,20.377ZM437.32,379.936c-0.02,-0.039 -0.036,-0.075 -0.053,-0.108l0.047,0.097l0.006,0.011ZM437.495,379.828c-0.064,-0.059 -0.119,-0.106 -0.167,-0.148l0.154,0.134l0.016,0.011c-0.003,0 -0.003,0 -0.003,0.003ZM437.724,379.683c-0.139,-0.045 -0.256,-0.081 -0.351,-0.109l0.362,0.103c-0.006,0 -0.006,0.003 -0.011,0.006ZM437.298,379.468l0.989,-0.139c-0.014,0.008 -0.028,0.017 -0.045,0.028c-0.446,0.053 -0.76,0.092 -0.944,0.111Z" style="fill:url(#_Radial50);"/><path d="M437.114,379.496l-0.006,-0.005c-0.003,-0.012 -0.011,-0.02 -0.025,-0.037l0.022,-0.005l0.009,0.036l0,0.011Z" style="fill:url(#_Radial51);"/><path d="M437.108,379.491c-0.011,-0.006 -0.03,-0.014 -0.061,-0.031l0.036,-0.006c0.014,0.017 0.022,0.025 0.025,0.037Z" style="fill:url(#_Radial52);"/><path d="M437.114,379.496c0,0 -0.062,-0.005 -0.181,-0.017l0.114,-0.019c0.031,0.017 0.05,0.025 0.061,0.031l0.006,0.005Z" style="fill:url(#_Radial53);"/><path d="M151.812,461.922l7.77,-13.067c0,0 9.86,-17.396 20.405,-23.72c10.545,-6.322 28.649,-7.665 28.649,-7.665l228.28,-37.988l0.198,0.014l-0.006,0.003c-0.019,0.005 -0.075,0.025 -0.173,0.058l-0.167,0.059c-8.107,2.766 -158.059,54.033 -217.322,72.613c-12.841,4.035 -12.927,2.784 -23.47,5.414c-10.542,2.627 -22.352,2.783 -22.352,2.783l-21.812,1.496Z" style="fill:url(#_Radial54);"/><path d="M164.873,529.883l11.097,-30.357c0,0 6.469,-18.921 15.66,-27.087c9.191,-8.166 26.735,-12.835 26.735,-12.835l218.403,-79.988l0.167,-0.059c0.098,-0.033 0.154,-0.053 0.173,-0.058c-0.011,0.011 -0.039,0.036 -0.083,0.078c-0.025,0.025 -0.064,0.061 -0.103,0.097c-0.282,0.262 -0.864,0.803 -1.719,1.597c-21.278,13.395 -141.856,89.229 -191.796,118.934c-11.565,6.885 -11.936,5.692 -21.592,10.682c-9.651,4.987 -21.105,7.865 -21.105,7.865l-35.837,11.131Z" style="fill:url(#_Radial55);"/><path d="M435.412,381.14l1.51,-1.466c0.039,-0.036 0.078,-0.072 0.103,-0.097c0.044,-0.042 0.072,-0.067 0.083,-0.078c-0.005,0.017 -0.017,0.053 -0.042,0.106l-0.055,0.136l-0.078,0.187c-0.042,0.097 -0.092,0.214 -0.148,0.345c-0.393,0.248 -0.85,0.535 -1.373,0.867Z" style="fill:url(#_Radial56);"/><path d="M436.799,380.265l0.212,-0.524l0.055,-0.136c0.025,-0.053 0.037,-0.089 0.042,-0.106l0.006,-0.003c0,0 0.003,0.192 0.008,0.566c-0.1,0.064 -0.209,0.131 -0.323,0.203Z" style="fill:url(#_Radial57);"/><path d="M437.136,380.053l-0.022,-0.557l0.005,0.006c0,0.008 0.012,0.025 0.025,0.053c0.02,0.044 0.045,0.103 0.084,0.183c0.011,0.028 0.025,0.056 0.039,0.09c0.017,0.033 0.033,0.069 0.053,0.108c-0.061,0.039 -0.12,0.078 -0.184,0.117Z" style="fill:url(#_Radial58);"/><path d="M437.32,379.936l-0.006,-0.011l-0.047,-0.097c-0.014,-0.034 -0.028,-0.062 -0.039,-0.09c-0.039,-0.08 -0.064,-0.139 -0.084,-0.183c-0.013,-0.028 -0.025,-0.045 -0.025,-0.053c0.017,0.011 0.062,0.05 0.134,0.117c0.022,0.014 0.047,0.039 0.075,0.061c0.048,0.042 0.103,0.089 0.167,0.148c-0.055,0.033 -0.114,0.069 -0.175,0.108Z" style="fill:url(#_Radial59);"/><path d="M437.498,379.825l-0.016,-0.011l-0.154,-0.134c-0.028,-0.022 -0.053,-0.047 -0.075,-0.061c-0.072,-0.067 -0.117,-0.106 -0.134,-0.117c0.012,0 0.034,0.005 0.059,0.011c0.042,0.014 0.111,0.036 0.195,0.061c0.095,0.028 0.212,0.064 0.351,0.109c-0.07,0.044 -0.145,0.092 -0.226,0.142Z" style="fill:url(#_Radial60);"/><path d="M437.735,379.677l-0.362,-0.103c-0.084,-0.025 -0.153,-0.047 -0.195,-0.061c-0.025,-0.006 -0.047,-0.011 -0.059,-0.011l-0.005,-0.006c0,0 0.039,-0.005 0.12,-0.019l0.064,-0.009c0.184,-0.019 0.498,-0.058 0.944,-0.111c-0.011,0.005 -0.022,0.011 -0.031,0.019c-0.117,0.073 -0.275,0.173 -0.476,0.301Z" style="fill:url(#_Radial61);"/><path d="M437.114,379.496l0.005,-0.005c0.014,-0.009 0.05,-0.028 0.106,-0.062l0.844,-0.139l0.179,-0.025c0.1,-0.017 0.159,-0.025 0.181,-0.025c-0.014,0.008 -0.045,0.028 -0.098,0.058c-0.014,0.009 -0.028,0.02 -0.044,0.031l-0.989,0.139l-0.064,0.009c-0.081,0.014 -0.12,0.019 -0.12,0.019Z" style="fill:url(#_Radial62);"/><path d="M437.119,379.491c0.006,-0.009 0.017,-0.026 0.031,-0.048l0.075,-0.014c-0.056,0.034 -0.092,0.053 -0.106,0.062Z" style="fill:url(#_Radial63);"/><path d="M437.119,379.491l0,-0.006l0,-0.006l0.006,-0.033l0.025,-0.003c-0.014,0.022 -0.025,0.039 -0.031,0.048Z" style="fill:url(#_Radial64);"/><path d="M437.114,379.496l0,-0.011l-0.009,-0.036l0.02,-0.003l-0.006,0.033l-0.005,0.006l0.005,0.006l-0.005,0.005Z" style="fill:url(#_Radial65);"/><path d="M437.119,379.491l-0.005,-0.006l0.005,-0.006l0.006,-0.033l-0.006,0.033l0,0.012Z" style="fill:url(#_Radial66);"/><path d="M198.147,673.421l12.153,-102.736l19.023,-10.083c0,0 10.724,-4.948 19.282,-11.635c8.568,-6.689 9.153,-5.589 19.244,-14.493c44.031,-38.835 150.202,-137.286 167.008,-152.883l0.276,-0.181l-165.27,160.241c0,0 -14.131,11.401 -19.207,22.598c-5.076,11.205 -3.29,31.115 -3.29,31.115l2.256,32.909l-51.475,45.148ZM435.097,384.224c0.766,-1.791 1.329,-3.106 1.663,-3.889l0.017,-0.011l-1.399,3.482c-0.092,0.137 -0.187,0.276 -0.281,0.418ZM437.139,381.173c-0.006,-0.448 -0.011,-0.808 -0.014,-1.078l0.011,-0.008l0.039,1.036c-0.011,0.017 -0.022,0.034 -0.036,0.05ZM437.585,380.51c-0.101,-0.22 -0.187,-0.404 -0.257,-0.551l0.265,0.537c-0.003,0.003 -0.006,0.009 -0.008,0.014ZM437.841,380.129c-0.128,-0.112 -0.237,-0.209 -0.332,-0.29l0.003,-0.003l0.335,0.281c-0.003,0.003 -0.003,0.006 -0.006,0.012ZM438.067,379.789c-0.12,-0.039 -0.229,-0.073 -0.326,-0.103l0.008,-0.006l0.329,0.095c-0.003,0.002 -0.006,0.008 -0.011,0.014ZM438.242,379.357c0.017,-0.011 0.031,-0.02 0.045,-0.028l0.094,-0.014c-0.005,0.006 -0.008,0.014 -0.013,0.019l-0.006,0.006c-0.039,0.006 -0.081,0.011 -0.12,0.017Z" style="fill:url(#_Radial67);"/><path d="M210.3,570.685l1.708,-14.432c0,0 1.93,-19.898 8.993,-29.97c7.06,-10.063 23.055,-18.653 23.055,-18.653l190.801,-126.039c-16.806,15.597 -122.977,114.048 -167.008,152.883c-10.091,8.904 -10.676,7.804 -19.244,14.493c-8.558,6.687 -19.282,11.635 -19.282,11.635l-19.023,10.083Z" style="fill:url(#_Radial68);"/><path d="M249.622,628.273l-2.256,-32.909c0,0 -1.786,-19.91 3.29,-31.115c5.076,-11.197 19.207,-22.598 19.207,-22.598l165.27,-160.241l1.627,-1.075c-0.334,0.783 -0.897,2.098 -1.663,3.889c-16.842,25.144 -92.952,138.624 -125.624,184.85c-7.768,10.991 -8.593,10.052 -15.382,18.536c-6.787,8.484 -16.087,15.769 -16.087,15.769l-28.382,24.894Z" style="fill:url(#_Radial69);"/><path d="M435.378,383.806l1.399,-3.482l0.348,-0.229c0.003,0.27 0.008,0.63 0.014,1.078c-0.468,0.7 -1.056,1.58 -1.761,2.633Z" style="fill:url(#_Radial70);"/><path d="M437.175,381.123l-0.039,-1.036l0.192,-0.128c0.07,0.147 0.156,0.331 0.257,0.551c-0.126,0.184 -0.262,0.387 -0.41,0.613Z" style="fill:url(#_Radial71);"/><path d="M437.593,380.496l-0.265,-0.537l0.181,-0.12c0.095,0.081 0.204,0.178 0.332,0.29c-0.075,0.111 -0.159,0.234 -0.248,0.367Z" style="fill:url(#_Radial72);"/><path d="M437.847,380.117l-0.335,-0.281l0.229,-0.15c0.097,0.03 0.206,0.064 0.326,0.103c-0.064,0.094 -0.137,0.206 -0.22,0.328Z" style="fill:url(#_Radial73);"/><path d="M438.078,379.775l-0.329,-0.095l0.462,-0.304c0.009,-0.008 0.02,-0.014 0.031,-0.019c0.039,-0.006 0.081,-0.011 0.12,-0.017l-0.078,0.12l-0.109,0.167c-0.03,0.045 -0.064,0.095 -0.097,0.148Z" style="fill:url(#_Radial74);"/><path d="M438.287,379.329c0.016,-0.011 0.03,-0.022 0.044,-0.031c0.053,-0.03 0.084,-0.05 0.098,-0.058c-0.009,0.011 -0.022,0.039 -0.048,0.075l-0.094,0.014Z" style="fill:url(#_Radial75);"/><path d="M338.579,745.722l-30.864,-99.373l13.23,-16.889c0,0 7.791,-8.88 12.889,-18.472c5.104,-9.595 6.088,-8.826 11.688,-21.063c23.578,-51.536 77.469,-177.386 89.279,-205.01l0.351,-0.549l-84.874,211.293c0,0 -8.275,16.159 -8.35,28.46c-0.084,12.295 9.642,29.761 9.642,29.761l15.694,29.61l-28.685,62.232ZM437.217,386.28c-0.034,-2.184 -0.059,-3.878 -0.075,-5.029l0.036,-0.058l0.161,4.38c-0.039,0.231 -0.08,0.465 -0.122,0.707ZM438.044,381.499c-0.172,-0.37 -0.323,-0.693 -0.448,-0.964l0.011,-0.014l0.448,0.914c-0.005,0.022 -0.008,0.042 -0.011,0.064ZM438.223,380.46c-0.137,-0.117 -0.259,-0.226 -0.371,-0.323l0.006,-0.011l0.37,0.309c-0.003,0.008 -0.005,0.017 -0.005,0.025ZM438.326,379.867c-0.089,-0.028 -0.173,-0.053 -0.251,-0.078l0.008,-0.014l0.246,0.069c0,0.009 -0.003,0.014 -0.003,0.023ZM438.362,379.34l0.006,-0.006c0.005,-0.005 0.008,-0.013 0.013,-0.019l0.039,-0.006c0,0.009 -0.002,0.017 -0.002,0.025c-0.02,0.003 -0.037,0.006 -0.056,0.006Z" style="fill:url(#_Radial76);"/><path d="M307.715,646.349l-4.135,-13.306c0,0 -6.324,-18.962 -3.967,-31.029c2.351,-12.075 13.473,-26.423 13.473,-26.423l121.715,-190.676c-11.81,27.624 -65.701,153.474 -89.279,205.01c-5.6,12.237 -6.584,11.468 -11.688,21.063c-5.098,9.592 -12.889,18.472 -12.889,18.472l-13.23,16.889Z" style="fill:url(#_Radial77);"/><path d="M367.264,683.49l-15.694,-29.61c0,0 -9.726,-17.466 -9.642,-29.761c0.075,-12.301 8.35,-28.46 8.35,-28.46l84.874,-211.293l1.99,-3.115c0.016,1.151 0.041,2.845 0.075,5.029c-5.528,31.94 -28.468,163.988 -39.381,218.835c-2.625,13.2 -3.761,12.674 -6.511,23.191c-2.75,10.507 -8.281,20.94 -8.281,20.94l-15.78,34.244Z" style="fill:url(#_Radial78);"/><path d="M437.339,385.573l-0.161,-4.38l0.418,-0.658c0.125,0.271 0.276,0.594 0.448,0.964c-0.178,1.031 -0.415,2.399 -0.705,4.074Z" style="fill:url(#_Radial79);"/><path d="M438.055,381.435l-0.448,-0.914l0.245,-0.384c0.112,0.097 0.234,0.206 0.371,0.323c-0.048,0.281 -0.106,0.605 -0.168,0.975Z" style="fill:url(#_Radial80);"/><path d="M438.228,380.435l-0.37,-0.309l0.217,-0.337c0.078,0.025 0.162,0.05 0.251,0.078c-0.028,0.158 -0.062,0.348 -0.098,0.568Z" style="fill:url(#_Radial81);"/><path d="M438.329,379.844l-0.246,-0.069l0.201,-0.315l0.078,-0.12c0.019,0 0.036,-0.003 0.056,-0.006c-0.017,0.098 -0.048,0.271 -0.089,0.51Z" style="fill:url(#_Radial82);"/><path d="M438.381,379.315c0.026,-0.036 0.039,-0.064 0.048,-0.075l0.005,-0.006c0,0 -0.005,0.025 -0.014,0.075l-0.039,0.006Z" style="fill:url(#_Radial83);"/><path d="M496.279,754.655l-68.889,-78.543l5.272,-21.018c0,0 3.502,-11.278 4.257,-22.113c0.758,-10.843 1.972,-10.537 2.109,-23.993c0.568,-55.585 -1.304,-188.33 -1.797,-221.752l0.136,-0.906l8.339,225.959c0,0 -0.983,18.129 3.945,29.396c4.923,11.267 20.921,23.264 20.921,23.264l26.601,20.842l-0.894,68.864ZM440.165,386.08c-0.875,-1.887 -1.575,-3.402 -2.084,-4.5l0.011,-0.067l1.897,3.867c0.056,0.226 0.117,0.463 0.176,0.7ZM438.891,381.045c-0.237,-0.209 -0.454,-0.396 -0.643,-0.563l0.003,-0.028l0.624,0.522c0.005,0.022 0.011,0.047 0.016,0.069ZM438.615,379.956c-0.097,-0.031 -0.189,-0.059 -0.275,-0.087l0.002,-0.019l0.265,0.075c0.003,0.011 0.006,0.02 0.008,0.031ZM438.418,379.334l0.005,-0.025l0.031,-0.005c0.003,0.008 0.003,0.017 0.005,0.025c-0.013,0.003 -0.027,0.003 -0.041,0.005Z" style="fill:url(#_Radial84);"/><path d="M427.39,676.112l-8.915,-10.163c0,0 -13.499,-14.75 -16.251,-26.733c-2.761,-11.985 1.563,-29.621 1.563,-29.621l33.444,-222.359c0.493,33.422 2.365,166.167 1.797,221.752c-0.137,13.456 -1.351,13.15 -2.109,23.993c-0.755,10.835 -4.257,22.113 -4.257,22.113l-5.272,21.018Z" style="fill:url(#_Radial85);"/><path d="M497.173,685.791l-26.601,-20.842c0,0 -15.998,-11.997 -20.921,-23.264c-4.928,-11.267 -3.945,-29.396 -3.945,-29.396l-8.339,-225.959l0.714,-4.75c0.509,1.098 1.209,2.613 2.084,4.5c7.901,31.27 40.704,161.427 53.052,216.018c2.973,13.125 1.722,13.111 3.483,23.835c1.76,10.718 0.961,22.5 0.961,22.5l-0.488,37.358Z" style="fill:url(#_Radial86);"/><path d="M439.989,385.38l-1.897,-3.867l0.156,-1.031c0.189,0.167 0.406,0.354 0.643,0.563c0.262,1.034 0.63,2.491 1.098,4.335Z" style="fill:url(#_Radial87);"/><path d="M438.875,380.976l-0.624,-0.522l0.089,-0.585c0.086,0.028 0.178,0.056 0.275,0.087c0.07,0.267 0.156,0.61 0.26,1.02Z" style="fill:url(#_Radial88);"/><path d="M438.607,379.925l-0.265,-0.075l0.076,-0.516c0.014,-0.002 0.028,-0.002 0.041,-0.005c0.012,0.045 0.023,0.097 0.042,0.167c0.006,0.028 0.014,0.059 0.023,0.092l0.025,0.106l0.005,0.017c0.017,0.064 0.034,0.136 0.053,0.214Z" style="fill:url(#_Radial89);"/><path d="M438.423,379.309l0.011,-0.075l0.003,0.006c0,0.003 0,0.003 0,0.005c0,0.011 0.006,0.028 0.014,0.053c0.003,0.003 0.003,0.006 0.003,0.006l-0.031,0.005Z" style="fill:url(#_Radial90);"/><path d="M643.968,698.666l-95.01,-43.792l-3.814,-21.795c0,0 -1.393,-11.727 -5.107,-21.935c-3.717,-10.211 -2.485,-10.428 -7.835,-22.776c-21.998,-50.807 -77.352,-170.572 -91.667,-201.486l-0.242,-0.878l99.354,202.665c0,0 6.477,16.956 15.56,25.247c9.085,8.289 28.571,12.746 28.571,12.746l32.781,8.219l27.409,63.785ZM441.989,383.753c-1.245,-1.089 -2.273,-1.989 -3.056,-2.672l-0.019,-0.072l2.68,2.24c0.128,0.162 0.262,0.331 0.395,0.504ZM439.128,380.115c-0.181,-0.056 -0.348,-0.109 -0.504,-0.156l-0.011,-0.034l0.473,0.137c0.014,0.016 0.028,0.033 0.042,0.053ZM438.459,379.329c-0.002,-0.008 -0.002,-0.017 -0.005,-0.025l0.033,-0.003c0.006,0.006 0.011,0.014 0.017,0.022c-0.014,0.003 -0.028,0.006 -0.045,0.006Z" style="fill:url(#_Radial91);"/><path d="M548.958,654.874l-12.145,-5.597c0,0 -18.324,-7.985 -25.718,-17.814c-7.391,-9.827 -10.618,-27.688 -10.618,-27.688l-59.942,-216.893c14.315,30.914 69.669,150.679 91.667,201.486c5.35,12.348 4.118,12.565 7.835,22.776c3.714,10.208 5.107,21.935 5.107,21.935l3.814,21.795Z" style="fill:url(#_Radial92);"/><path d="M616.559,634.881l-32.781,-8.219c0,0 -19.486,-4.457 -28.571,-12.746c-9.083,-8.291 -15.56,-25.247 -15.56,-25.247l-99.354,-202.665l-1.36,-4.923c0.783,0.683 1.811,1.583 3.056,2.672c18.394,23.384 103.174,131.311 137.136,176.796c8.055,10.782 6.91,11.272 12.88,20.352c5.968,9.077 10.025,20.174 10.025,20.174l14.529,33.806Z" style="fill:url(#_Radial93);"/><path d="M441.594,383.249l-2.68,-2.24l-0.29,-1.05c0.156,0.047 0.323,0.1 0.504,0.156c0.532,0.677 1.363,1.733 2.466,3.134Z" style="fill:url(#_Radial94);"/><path d="M439.086,380.062l-0.473,-0.137l-0.059,-0.214c-0.011,-0.045 -0.022,-0.084 -0.03,-0.123c-0.009,-0.033 -0.017,-0.064 -0.023,-0.092c-0.019,-0.07 -0.03,-0.122 -0.042,-0.167c0.017,0 0.031,-0.003 0.045,-0.006c0.014,0.017 0.028,0.037 0.045,0.059c0.016,0.019 0.039,0.047 0.061,0.072c0.109,0.14 0.267,0.343 0.476,0.608Z" style="fill:url(#_Radial95);"/><path d="M438.454,379.304c0,0 0,-0.003 -0.003,-0.006c-0.008,-0.025 -0.014,-0.042 -0.014,-0.053c0,-0.002 0,-0.002 0,-0.005c0.009,0.008 0.025,0.03 0.05,0.061l-0.033,0.003Z" style="fill:url(#_Radial96);"/><path d="M438.554,379.711l-0.005,-0.017l-0.025,-0.106c-0.009,-0.033 -0.017,-0.064 -0.023,-0.092c-0.019,-0.07 -0.03,-0.122 -0.042,-0.167c0.012,0.045 0.023,0.097 0.042,0.167c0.006,0.028 0.014,0.059 0.023,0.092c0.008,0.039 0.019,0.078 0.03,0.123Z" style="fill:url(#_Radial97);"/><path d="M756.125,587.454l-104.486,-1.36l-12.694,-18.875c0,0 -6.04,-10.153 -13.585,-17.968c-7.547,-7.817 -6.511,-8.511 -16.424,-17.619c-41.158,-37.826 -141.958,-126.042 -166.412,-147.414l-0.507,-0.615l173.843,145.277c0,0 12.816,12.857 24.487,16.738c3.906,1.299 8.7,1.731 13.353,1.731c9.247,0 17.931,-1.708 17.931,-1.708l33.007,-5.773l51.487,47.586ZM441.48,380.839c-0.912,-0.281 -1.692,-0.521 -2.327,-0.716l-0.044,-0.056l1.969,0.56c0.131,0.07 0.262,0.14 0.402,0.212ZM438.504,379.323c-0.006,-0.008 -0.011,-0.016 -0.017,-0.022l0.056,-0.008c0.014,0.005 0.028,0.014 0.042,0.022c-0.025,0.003 -0.053,0.006 -0.081,0.008Z" style="fill:url(#_Radial98);"/><path d="M651.639,586.094l-13.493,-0.175c0,0 -0.051,0 -0.151,0c-1.841,0 -20.383,-0.145 -30.591,-5.815c-10.749,-5.973 -20.965,-20.982 -20.965,-20.982l-143.915,-174.904c24.454,21.372 125.254,109.588 166.412,147.414c9.913,9.108 8.877,9.802 16.424,17.619c7.545,7.815 13.585,17.968 13.585,17.968l12.694,18.875Z" style="fill:url(#_Radial99);"/><path d="M653.7,547.349c-4.653,0 -9.447,-0.432 -13.353,-1.731c-11.671,-3.881 -24.487,-16.738 -24.487,-16.738l-173.843,-145.277l-2.864,-3.48c0.635,0.195 1.415,0.435 2.327,0.716c21.266,11.217 148.266,78.269 199.232,106.804c11.74,6.581 10.893,7.497 20.04,13.362c9.146,5.862 17.36,14.348 17.36,14.348l26.526,24.515l-33.007,5.773c0,0 -8.684,1.708 -17.931,1.708Z" style="fill:url(#_Radial100);"/><path d="M441.078,380.627l-1.969,-0.56l-0.371,-0.451l-0.128,-0.162c-0.022,-0.025 -0.045,-0.053 -0.061,-0.072c-0.017,-0.022 -0.031,-0.042 -0.045,-0.059c0.028,-0.002 0.056,-0.005 0.081,-0.008c0.028,0.014 0.058,0.028 0.089,0.045c0.376,0.197 1.192,0.629 2.404,1.267Z" style="fill:url(#_Radial101);"/><path d="M438.487,379.301c-0.025,-0.031 -0.041,-0.053 -0.05,-0.061l0.056,0.025c0.014,0.005 0.031,0.017 0.05,0.028l-0.056,0.008Z" style="fill:url(#_Radial102);"/><path d="M717.696,481.338l-19.85,-12.442c0,0 -9.643,-6.818 -19.718,-10.883c-10.074,-4.073 -9.408,-5.129 -22.166,-9.422c-54.283,-18.249 -187.249,-59.349 -214.078,-67.627l-0.499,-0.25l219.782,62.544c0,0 14.203,5.483 25.994,5.483c1.084,0 2.148,-0.047 3.179,-0.15c12.239,-1.204 28.593,-12.702 28.593,-12.702l27.371,-18.408l67.044,22.751l-95.652,41.106ZM438.585,379.315c-0.014,-0.008 -0.028,-0.017 -0.042,-0.022l0.254,-0.037c0.055,0.003 0.114,0.006 0.181,0.012c-0.14,0.016 -0.271,0.03 -0.393,0.047Z" style="fill:url(#_Radial103);"/><path d="M676.813,494.107c-0.791,0 -1.565,-0.031 -2.318,-0.098c-12.247,-1.081 -27.682,-10.64 -27.682,-10.64l-204.929,-102.405c26.829,8.278 159.795,49.378 214.078,67.627c12.758,4.293 12.092,5.349 22.166,9.422c10.075,4.065 19.718,10.883 19.718,10.883l19.85,12.442l-12.752,5.48c0,0 -16.033,7.289 -28.131,7.289Z" style="fill:url(#_Radial104);"/><path d="M687.161,448.741c-11.791,0 -25.994,-5.483 -25.994,-5.483l-219.782,-62.544l-2.711,-1.354c-0.031,-0.017 -0.061,-0.031 -0.089,-0.045c0.122,-0.017 0.253,-0.031 0.393,-0.047c10.389,0.691 166.885,11.085 228.338,16.73c13.401,1.234 13.002,2.415 23.74,4.054c10.746,1.635 21.701,6.043 21.701,6.043l33.547,11.386l-27.371,18.408c0,0 -16.354,11.498 -28.593,12.702c-1.031,0.103 -2.095,0.15 -3.179,0.15Z" style="fill:url(#_Radial105);"/><path d="M438.543,379.293c-0.019,-0.011 -0.036,-0.023 -0.05,-0.028l-0.056,-0.025l-0.003,-0.006c0,0 0.037,0.003 0.12,0.006l0.064,0.003c0.05,0.005 0.109,0.008 0.179,0.013l-0.254,0.037Z" style="fill:url(#_Radial106);"/><path d="M439.025,379.262l-0.206,-0.008l228.917,-32.639c0,0 18.129,-0.914 28.817,-6.993c10.69,-6.079 20.951,-23.236 20.951,-23.236l17.162,-27.379l71.079,-6.539l-70.268,76.027l-23.807,-3.38c0,0 -9.879,-1.964 -19.945,-1.964c-0.833,0 -1.669,0.014 -2.5,0.042c-1.549,0.053 -2.875,0.075 -4.048,0.075c-2.042,0 -3.619,-0.064 -5.109,-0.128c-1.491,-0.061 -2.892,-0.126 -4.589,-0.126c-2.452,0 -5.516,0.131 -10.334,0.588c-59.535,5.648 -207.601,23.431 -226.12,25.66Z" style="fill:url(#_Radial107);"/><path d="M683.483,390.356c-6.856,0 -12.328,-0.746 -12.328,-0.746l-232.13,-10.348c18.519,-2.229 166.585,-20.012 226.12,-25.66c4.818,-0.457 7.882,-0.588 10.334,-0.588c1.697,0 3.098,0.065 4.589,0.126c1.49,0.064 3.067,0.128 5.109,0.128c1.173,0 2.499,-0.022 4.048,-0.075c0.831,-0.028 1.667,-0.042 2.5,-0.042c10.066,0 19.945,1.964 19.945,1.964l23.807,3.38l-9.818,10.62c0,0 -13.259,14.961 -24.888,18.957c-5.216,1.791 -11.71,2.284 -17.288,2.284Z" style="fill:url(#_Radial108);"/><path d="M438.819,379.254l-0.201,-0.011l-0.064,-0.003c-0.083,-0.003 -0.12,-0.006 -0.12,-0.006l0.006,-0.003c0.022,-0.005 0.109,-0.036 0.245,-0.089c0.053,-0.019 0.12,-0.042 0.192,-0.069c9.122,-3.363 156.892,-57.736 215.467,-77.618c12.746,-4.329 12.863,-3.081 23.341,-5.956c10.476,-2.875 22.281,-3.302 22.281,-3.302l34.7,-3.19l-17.162,27.379c0,0 -10.261,17.157 -20.951,23.236c-10.688,6.079 -28.817,6.993 -28.817,6.993l-228.917,32.639Z" style="fill:url(#_Radial109);"/><path d="M439.844,377.863c0.064,-0.064 0.134,-0.131 0.201,-0.195l194.378,-122.01c0,0 16.19,-8.211 23.481,-18.115c7.294,-9.899 9.688,-29.747 9.688,-29.747l4.443,-31.299l62.592,-35.062l-33.054,97.398l-23.556,6.72c0,0 -11.52,2.605 -21.286,7.369c-9.762,4.764 -10.11,3.558 -21.834,10.172c-51.06,28.789 -175.102,102.842 -195.053,114.769Z" style="fill:url(#_Radial110);"/><path d="M438.44,379.231c0.017,-0.019 0.078,-0.08 0.184,-0.183c0.022,-0.023 0.042,-0.039 0.069,-0.067c0.235,-0.226 0.622,-0.602 1.151,-1.118c19.951,-11.927 143.993,-85.98 195.053,-114.769c11.724,-6.614 12.072,-5.408 21.834,-10.172c9.766,-4.764 21.286,-7.369 21.286,-7.369l23.556,-6.72l-4.864,14.329c0,0 -6.026,19.065 -15.025,27.442c-9,8.384 -26.429,13.454 -26.429,13.454l-216.378,85.015c-0.072,0.027 -0.139,0.05 -0.192,0.069c-0.136,0.053 -0.223,0.084 -0.245,0.089Z" style="fill:url(#_Radial111);"/><path d="M440.045,377.668c14.32,-13.927 120.33,-116.948 163.999,-157.31c9.882,-9.138 10.495,-8.043 18.898,-14.936c8.403,-6.884 19.009,-12.075 19.009,-12.075l30.084,-16.85l-4.443,31.299c0,0 -2.394,19.848 -9.688,29.747c-7.291,9.904 -23.481,18.115 -23.481,18.115l-194.378,122.01Z" style="fill:url(#_Radial112);"/><path d="M438.707,378.54c0.006,-0.013 0.014,-0.03 0.02,-0.044l1.178,-0.741l-0.17,0.172c-0.384,0.229 -0.727,0.435 -1.028,0.613ZM439.925,375.501c0.056,-0.139 0.111,-0.279 0.17,-0.426l126.897,-188.963c0,0 11.451,-14.086 14.089,-26.1c2.636,-12.011 -3.251,-31.117 -3.251,-31.117l-8.506,-29.814l42.972,-57.557l9.362,101.769l-18.948,15.855c0,0 -9.465,7.066 -16.447,15.388c-6.984,8.325 -7.789,7.366 -15.808,18.173c-34.171,46.035 -114.507,160.03 -130.53,182.792Z" style="fill:url(#_Radial113);"/><path d="M438.44,379.231l0,-0.005l0.003,-0.006l0.016,-0.05l0.042,-0.111c0.048,-0.117 0.114,-0.29 0.206,-0.519c0.301,-0.178 0.644,-0.384 1.028,-0.613l-0.88,0.895l-0.162,0.159c-0.027,0.028 -0.047,0.044 -0.069,0.067c-0.106,0.103 -0.167,0.164 -0.184,0.183Z" style="fill:url(#_Radial114);"/><path d="M438.727,378.496c0.248,-0.624 0.652,-1.636 1.198,-2.995c16.023,-22.762 96.359,-136.757 130.53,-182.792c8.019,-10.807 8.824,-9.848 15.808,-18.173c6.982,-8.322 16.447,-15.388 16.447,-15.388l18.948,-15.855l1.446,15.719c0,0 2.248,19.867 -2.564,31.179c-4.82,11.32 -18.677,23.043 -18.677,23.043l-161.958,164.521l-1.178,0.741Z" style="fill:url(#_Radial115);"/><path d="M440.095,375.075c9.98,-24.93 62.266,-155.402 85.006,-208.34c5.318,-12.367 6.319,-11.621 11.194,-21.33c4.876,-9.71 12.454,-18.767 12.454,-18.767l20.575,-27.557l8.506,29.814c0,0 5.887,19.106 3.251,31.117c-2.638,12.014 -14.089,26.1 -14.089,26.1l-126.897,188.963Z" style="fill:url(#_Radial116);"/><path d="M438.412,378.719c0,-0.009 0,-0.017 0,-0.028l0.295,-0.184l-0.016,0.045c-0.098,0.058 -0.19,0.114 -0.279,0.167ZM438.373,377.705c0,-0.023 0,-0.042 0,-0.064l1.493,-2.224l-0.133,0.357c-0.532,0.755 -0.984,1.398 -1.36,1.931ZM438.225,373.835c-0.005,-0.192 -0.014,-0.39 -0.022,-0.588l38.905,-223.248c0,0 4.728,-17.522 2.254,-29.566c-2.477,-12.047 -15.625,-27.111 -15.625,-27.111l-19.633,-23.461l15.803,-69.861l49.695,88.714l-10.832,22.13c0,0 -5.773,10.302 -8.768,20.747c-2.992,10.445 -4.112,9.897 -7.052,23.033c-12.359,55.387 -38.966,189.993 -44.725,219.211Z" style="fill:url(#_Radial117);"/><path d="M438.434,379.234l0.003,-0.008l-0.008,-0.112l-0.003,-0.066l-0.003,-0.079c-0.003,-0.069 -0.005,-0.153 -0.011,-0.25c0.089,-0.053 0.181,-0.109 0.279,-0.167l-0.159,0.426l-0.031,0.081l-0.042,0.111l-0.016,0.05l-0.006,0.006l0.003,0.005l-0.006,0.003Z" style="fill:url(#_Radial118);"/><path d="M438.412,378.691c-0.008,-0.248 -0.022,-0.577 -0.039,-0.986c0.376,-0.533 0.828,-1.176 1.36,-1.931l-1.026,2.733l-0.295,0.184Z" style="fill:url(#_Radial119);"/><path d="M438.373,377.641c-0.036,-0.906 -0.086,-2.188 -0.148,-3.806c5.759,-29.218 32.366,-163.824 44.725,-219.211c2.94,-13.136 4.06,-12.588 7.052,-23.033c2.995,-10.445 8.768,-20.747 8.768,-20.747l10.832,-22.13l7.965,14.223c0,0 10.13,17.237 10.337,29.532c0.2,12.295 -7.69,28.638 -7.69,28.638l-80.348,214.31l-1.493,2.224Z" style="fill:url(#_Radial120);"/><path d="M438.203,373.247c-1.153,-30.223 -6.285,-166.785 -7.024,-223.396c-0.178,-13.456 1.042,-13.181 1.547,-24.032c0.51,-10.858 3.747,-22.214 3.747,-22.214l7.631,-33.744l19.633,23.461c0,0 13.148,15.064 15.625,27.111c2.474,12.044 -2.254,29.566 -2.254,29.566l-38.905,223.248Z" style="fill:url(#_Radial121);"/><path d="M438.44,379.231l-0.003,-0.005l0.006,-0.006l0.016,-0.05l0.042,-0.111l-0.042,0.111l-0.016,0.05l-0.003,0.006l0,0.005Z" style="fill:url(#_Radial122);"/><path d="M872.373,871.684c0,48.224 -195.286,87.315 -436.187,87.315c-240.898,0 -436.186,-39.091 -436.186,-87.315c0,-48.222 195.288,-87.313 436.186,-87.313c240.901,0 436.187,39.091 436.187,87.313Z" style="fill:url(#_Radial123);"/></g><defs><radialGradient id="_Radial1" cx="0" cy="0" r="1" gradientUnits="userSpaceOnUse" gradientTransform="matrix(1052.26,0,0,1052.26,437.016,499.462)"><stop offset="0%" style="stop-color:#fdb812;stop-opacity:1"/><stop offset="70%" style="stop-color:#f5b312;stop-opacity:1"/><stop offset="80%" style="stop-color:#dba110;stop-opacity:1"/><stop offset="90%" style="stop-color:#b28308;stop-opacity:1"/><stop offset="100%" style="stop-color:#7f5d00;stop-opacity:1"/></radialGradient><radialGradient id="_Radial2" cx="0" cy="0" r="1" gradientUnits="userSpaceOnUse" gradientTransform="matrix(1052.26,0,0,1052.26,437.016,499.462)"><stop offset="0%" style="stop-color:#f7e532;stop-opacity:1"/><stop offset="60%" style="stop-color:#f7e532;stop-opacity:1"/><stop offset="70%" style="stop-color:#efde31;stop-opacity:1"/><stop offset="80%" style="stop-color:#d6c72e;stop-opacity:1"/><stop offset="90%" style="stop-color:#ada325;stop-opacity:1"/><stop offset="100%" style="stop-color:#7b7412;stop-opacity:1"/></radialGradient><radialGradient id="_Radial3" cx="0" cy="0" r="1" gradientUnits="userSpaceOnUse" gradientTransform="matrix(1052.26,0,0,1052.26,437.016,499.462)"><stop offset="0%" style="stop-color:#d7df22;stop-opacity:1"/><stop offset="70%" style="stop-color:#d0d821;stop-opacity:1"/><stop offset="80%" style="stop-color:#b9c21e;stop-opacity:1"/><stop offset="90%" style="stop-color:#969f17;stop-opacity:1"/><stop offset="100%" style="stop-color:#687205;stop-opacity:1"/></radialGradient><radialGradient id="_Radial4" cx="0" cy="0" r="1" gradientUnits="userSpaceOnUse" gradientTransform="matrix(1052.26,0,0,1052.26,437.016,499.462)"><stop offset="0%" style="stop-color:#8cc63f;stop-opacity:1"/><stop offset="70%" style="stop-color:#88c03d;stop-opacity:1"/><stop offset="80%" style="stop-color:#79ad36;stop-opacity:1"/><stop offset="90%" style="stop-color:#608e2b;stop-opacity:1"/><stop offset="100%" style="stop-color:#3f6618;stop-opacity:1"/></radialGradient><radialGradient id="_Radial5" cx="0" cy="0" r="1" gradientUnits="userSpaceOnUse" gradientTransform="matrix(1052.26,0,0,1052.26,437.016,499.462)"><stop offset="0%" style="stop-color:#2bb673;stop-opacity:1"/><stop offset="70%" style="stop-color:#29b070;stop-opacity:1"/><stop offset="80%" style="stop-color:#239f65;stop-opacity:1"/><stop offset="90%" style="stop-color:#138453;stop-opacity:1"/><stop offset="100%" style="stop-color:#005f39;stop-opacity:1"/></radialGradient><radialGradient id="_Radial6" cx="0" cy="0" r="1" gradientUnits="userSpaceOnUse" gradientTransform="matrix(1052.26,0,0,1052.26,437.016,499.462)"><stop offset="0%" style="stop-color:#08a79d;stop-opacity:1"/><stop offset="70%" style="stop-color:#08a299;stop-opacity:1"/><stop offset="80%" style="stop-color:#07938a;stop-opacity:1"/><stop offset="90%" style="stop-color:#047a72;stop-opacity:1"/><stop offset="100%" style="stop-color:#005751;stop-opacity:1"/></radialGradient><radialGradient id="_Radial7" cx="0" cy="0" r="1" gradientUnits="userSpaceOnUse" gradientTransform="matrix(1052.26,0,0,1052.26,437.016,499.462)"><stop offset="0%" style="stop-color:#27aae1;stop-opacity:1"/><stop offset="60%" style="stop-color:#27aae1;stop-opacity:1"/><stop offset="70%" style="stop-color:#26a6db;stop-opacity:1"/><stop offset="80%" style="stop-color:#2396c6;stop-opacity:1"/><stop offset="90%" style="stop-color:#1b7ca4;stop-opacity:1"/><stop offset="100%" style="stop-color:#085877;stop-opacity:1"/></radialGradient><radialGradient id="_Radial8" cx="0" cy="0" r="1" gradientUnits="userSpaceOnUse" gradientTransform="matrix(1052.26,0,0,1052.26,437.016,499.462)"><stop offset="0%" style="stop-color:#1375bc;stop-opacity:1"/><stop offset="70%" style="stop-color:#1372b6;stop-opacity:1"/><stop offset="80%" style="stop-color:#1166a5;stop-opacity:1"/><stop offset="90%" style="stop-color:#0d5389;stop-opacity:1"/><stop offset="100%" style="stop-color:#053863;stop-opacity:1"/></radialGradient><radialGradient id="_Radial9" cx="0" cy="0" r="1" gradientUnits="userSpaceOnUse" gradientTransform="matrix(1052.26,0,0,1052.26,437.016,499.462)"><stop offset="0%" style="stop-color:#1a4697;stop-opacity:1"/><stop offset="70%" style="stop-color:#194393;stop-opacity:1"/><stop offset="80%" style="stop-color:#163b85;stop-opacity:1"/><stop offset="100%" style="stop-color:#00144e;stop-opacity:1"/></radialGradient><radialGradient id="_Radial10" cx="0" cy="0" r="1" gradientUnits="userSpaceOnUse" gradientTransform="matrix(1052.26,0,0,1052.26,437.016,499.462)"><stop offset="0%" style="stop-color:#262261;stop-opacity:1"/><stop offset="70%" style="stop-color:#25205f;stop-opacity:1"/><stop offset="90%" style="stop-color:#150b47;stop-opacity:1"/><stop offset="100%" style="stop-color:#030031;stop-opacity:1"/></radialGradient><radialGradient id="_Radial11" cx="0" cy="0" r="1" gradientUnits="userSpaceOnUse" gradientTransform="matrix(1052.26,0,0,1052.26,437.016,499.462)"><stop offset="0%" style="stop-color:#3c2414;stop-opacity:1"/><stop offset="90%" style="stop-color:#2d1705;stop-opacity:1"/><stop offset="100%" style="stop-color:#1f0800;stop-opacity:1"/></radialGradient><radialGradient id="_Radial12" cx="0" cy="0" r="1" gradientUnits="userSpaceOnUse" gradientTransform="matrix(1052.26,0,0,1052.26,437.016,499.462)"><stop offset="0%" style="stop-color:#754c28;stop-opacity:1"/><stop offset="70%" style="stop-color:#724a27;stop-opacity:1"/><stop offset="100%" style="stop-color:#3e2404;stop-opacity:1"/></radialGradient><radialGradient id="_Radial13" cx="0" cy="0" r="1" gradientUnits="userSpaceOnUse" gradientTransform="matrix(1052.26,0,0,1052.26,437.016,499.462)"><stop offset="0%" style="stop-color:#c0452f;stop-opacity:1"/><stop offset="70%" style="stop-color:#bb432d;stop-opacity:1"/><stop offset="90%" style="stop-color:#8b2f1b;stop-opacity:1"/><stop offset="100%" style="stop-color:#651b05;stop-opacity:1"/></radialGradient><radialGradient id="_Radial14" cx="0" cy="0" r="1" gradientUnits="userSpaceOnUse" gradientTransform="matrix(1052.26,0,0,1052.26,437.016,499.462)"><stop offset="0%" style="stop-color:#f15d38;stop-opacity:1"/><stop offset="70%" style="stop-color:#ea5a37;stop-opacity:1"/><stop offset="80%" style="stop-color:#d15130;stop-opacity:1"/><stop offset="100%" style="stop-color:#7b290c;stop-opacity:1"/></radialGradient><radialGradient id="_Radial15" cx="0" cy="0" r="1" gradientUnits="userSpaceOnUse" gradientTransform="matrix(1052.26,0,0,1052.26,437.016,499.462)"><stop offset="0%" style="stop-color:#f15d38;stop-opacity:1"/><stop offset="70%" style="stop-color:#ea5a37;stop-opacity:1"/><stop offset="80%" style="stop-color:#d15130;stop-opacity:1"/><stop offset="100%" style="stop-color:#7b290c;stop-opacity:1"/></radialGradient><radialGradient id="_Radial16" cx="0" cy="0" r="1" gradientUnits="userSpaceOnUse" gradientTransform="matrix(1052.26,0,0,1052.26,437.016,499.462)"><stop offset="0%" style="stop-color:#f58429;stop-opacity:1"/><stop offset="70%" style="stop-color:#ee8028;stop-opacity:1"/><stop offset="80%" style="stop-color:#d57323;stop-opacity:1"/><stop offset="90%" style="stop-color:#ae5e18;stop-opacity:1"/><stop offset="100%" style="stop-color:#7c4003;stop-opacity:1"/></radialGradient><radialGradient id="_Radial17" cx="0" cy="0" r="1" gradientUnits="userSpaceOnUse" gradientTransform="matrix(1052.26,0,0,1052.26,437.016,499.462)"><stop offset="0%" style="stop-color:#f58429;stop-opacity:1"/><stop offset="70%" style="stop-color:#ee8028;stop-opacity:1"/><stop offset="80%" style="stop-color:#d57323;stop-opacity:1"/><stop offset="90%" style="stop-color:#ae5e18;stop-opacity:1"/><stop offset="100%" style="stop-color:#7c4003;stop-opacity:1"/></radialGradient><radialGradient id="_Radial18" cx="0" cy="0" r="1" gradientUnits="userSpaceOnUse" gradientTransform="matrix(1052.26,0,0,1052.26,437.016,499.462)"><stop offset="0%" style="stop-color:#fdb812;stop-opacity:1"/><stop offset="70%" style="stop-color:#f5b312;stop-opacity:1"/><stop offset="80%" style="stop-color:#dba110;stop-opacity:1"/><stop offset="90%" style="stop-color:#b28308;stop-opacity:1"/><stop offset="100%" style="stop-color:#7f5d00;stop-opacity:1"/></radialGradient><radialGradient id="_Radial19" cx="0" cy="0" r="1" gradientUnits="userSpaceOnUse" gradientTransform="matrix(1052.26,0,0,1052.26,437.016,499.462)"><stop offset="0%" style="stop-color:#75401d;stop-opacity:1"/><stop offset="70%" style="stop-color:#723e1c;stop-opacity:1"/><stop offset="100%" style="stop-color:#3f1a00;stop-opacity:1"/></radialGradient><radialGradient id="_Radial20" cx="0" cy="0" r="1" gradientUnits="userSpaceOnUse" gradientTransform="matrix(1052.26,0,0,1052.26,437.016,499.462)"><stop offset="0%" style="stop-color:#bf3c24;stop-opacity:1"/><stop offset="70%" style="stop-color:#bb3a23;stop-opacity:1"/><stop offset="90%" style="stop-color:#8a2711;stop-opacity:1"/><stop offset="100%" style="stop-color:#641400;stop-opacity:1"/></radialGradient><radialGradient id="_Radial21" cx="0" cy="0" r="1" gradientUnits="userSpaceOnUse" gradientTransform="matrix(1052.26,0,0,1052.26,437.016,499.462)"><stop offset="0%" style="stop-color:#fdb812;stop-opacity:1"/><stop offset="70%" style="stop-color:#f5b312;stop-opacity:1"/><stop offset="80%" style="stop-color:#dba110;stop-opacity:1"/><stop offset="90%" style="stop-color:#b28308;stop-opacity:1"/><stop offset="100%" style="stop-color:#7f5d00;stop-opacity:1"/></radialGradient><radialGradient id="_Radial22" cx="0" cy="0" r="1" gradientUnits="userSpaceOnUse" gradientTransform="matrix(1052.26,0,0,1052.26,437.016,499.462)"><stop offset="0%" style="stop-color:#f7911d;stop-opacity:1"/><stop offset="70%" style="stop-color:#ef8d1c;stop-opacity:1"/><stop offset="80%" style="stop-color:#d67f18;stop-opacity:1"/><stop offset="90%" style="stop-color:#af670d;stop-opacity:1"/><stop offset="100%" style="stop-color:#7d4700;stop-opacity:1"/></radialGradient><radialGradient id="_Radial23" cx="0" cy="0" r="1" gradientUnits="userSpaceOnUse" gradientTransform="matrix(1052.26,0,0,1052.26,437.016,499.462)"><stop offset="0%" style="stop-color:#f04e22;stop-opacity:1"/><stop offset="70%" style="stop-color:#e84b21;stop-opacity:1"/><stop offset="80%" style="stop-color:#d0431d;stop-opacity:1"/><stop offset="100%" style="stop-color:#7a2000;stop-opacity:1"/></radialGradient><radialGradient id="_Radial24" cx="0" cy="0" r="1" gradientUnits="userSpaceOnUse" gradientTransform="matrix(1052.26,0,0,1052.26,437.016,499.462)"><stop offset="0%" style="stop-color:#f36d21;stop-opacity:1"/><stop offset="70%" style="stop-color:#eb6920;stop-opacity:1"/><stop offset="80%" style="stop-color:#d25f1b;stop-opacity:1"/><stop offset="90%" style="stop-color:#ac4d10;stop-opacity:1"/><stop offset="100%" style="stop-color:#7b3300;stop-opacity:1"/></radialGradient><radialGradient id="_Radial25" cx="0" cy="0" r="1" gradientUnits="userSpaceOnUse" gradientTransform="matrix(1052.26,0,0,1052.26,437.016,499.462)"><stop offset="0%" style="stop-color:#f7e532;stop-opacity:1"/><stop offset="60%" style="stop-color:#f7e532;stop-opacity:1"/><stop offset="70%" style="stop-color:#efde31;stop-opacity:1"/><stop offset="80%" style="stop-color:#d6c72e;stop-opacity:1"/><stop offset="90%" style="stop-color:#ada325;stop-opacity:1"/><stop offset="100%" style="stop-color:#7b7412;stop-opacity:1"/></radialGradient><radialGradient id="_Radial26" cx="0" cy="0" r="1" gradientUnits="userSpaceOnUse" gradientTransform="matrix(1052.26,0,0,1052.26,437.016,499.462)"><stop offset="0%" style="stop-color:#714a20;stop-opacity:1"/><stop offset="70%" style="stop-color:#6e481f;stop-opacity:1"/><stop offset="100%" style="stop-color:#3c2301;stop-opacity:1"/></radialGradient><radialGradient id="_Radial27" cx="0" cy="0" r="1" gradientUnits="userSpaceOnUse" gradientTransform="matrix(1052.26,0,0,1052.26,437.016,499.462)"><stop offset="0%" style="stop-color:#b94526;stop-opacity:1"/><stop offset="70%" style="stop-color:#b54325;stop-opacity:1"/><stop offset="90%" style="stop-color:#862e13;stop-opacity:1"/><stop offset="100%" style="stop-color:#611a00;stop-opacity:1"/></radialGradient><radialGradient id="_Radial28" cx="0" cy="0" r="1" gradientUnits="userSpaceOnUse" gradientTransform="matrix(1052.26,0,0,1052.26,437.016,499.462)"><stop offset="0%" style="stop-color:#f7e532;stop-opacity:1"/><stop offset="60%" style="stop-color:#f7e532;stop-opacity:1"/><stop offset="70%" style="stop-color:#efde31;stop-opacity:1"/><stop offset="80%" style="stop-color:#d6c72e;stop-opacity:1"/><stop offset="90%" style="stop-color:#ada325;stop-opacity:1"/><stop offset="100%" style="stop-color:#7b7412;stop-opacity:1"/></radialGradient><radialGradient id="_Radial29" cx="0" cy="0" r="1" gradientUnits="userSpaceOnUse" gradientTransform="matrix(1052.26,0,0,1052.26,437.016,499.462)"><stop offset="0%" style="stop-color:#f0af1d;stop-opacity:1"/><stop offset="70%" style="stop-color:#e8aa1c;stop-opacity:1"/><stop offset="80%" style="stop-color:#d09918;stop-opacity:1"/><stop offset="90%" style="stop-color:#a97d0e;stop-opacity:1"/><stop offset="100%" style="stop-color:#785800;stop-opacity:1"/></radialGradient><radialGradient id="_Radial30" cx="0" cy="0" r="1" gradientUnits="userSpaceOnUse" gradientTransform="matrix(1052.26,0,0,1052.26,437.016,499.462)"><stop offset="0%" style="stop-color:#ecd816;stop-opacity:1"/><stop offset="60%" style="stop-color:#ecd816;stop-opacity:1"/><stop offset="70%" style="stop-color:#e4d216;stop-opacity:1"/><stop offset="80%" style="stop-color:#ccbc16;stop-opacity:1"/><stop offset="90%" style="stop-color:#a59a0f;stop-opacity:1"/><stop offset="100%" style="stop-color:#746e02;stop-opacity:1"/></radialGradient><radialGradient id="_Radial31" cx="0" cy="0" r="1" gradientUnits="userSpaceOnUse" gradientTransform="matrix(1052.26,0,0,1052.26,437.016,499.462)"><stop offset="0%" style="stop-color:#e65a27;stop-opacity:1"/><stop offset="70%" style="stop-color:#df5826;stop-opacity:1"/><stop offset="80%" style="stop-color:#c84e20;stop-opacity:1"/><stop offset="100%" style="stop-color:#752802;stop-opacity:1"/></radialGradient><radialGradient id="_Radial32" cx="0" cy="0" r="1" gradientUnits="userSpaceOnUse" gradientTransform="matrix(1052.26,0,0,1052.26,437.016,499.462)"><stop offset="0%" style="stop-color:#ea7f24;stop-opacity:1"/><stop offset="70%" style="stop-color:#e27b23;stop-opacity:1"/><stop offset="80%" style="stop-color:#cb6f1e;stop-opacity:1"/><stop offset="100%" style="stop-color:#763d01;stop-opacity:1"/></radialGradient><radialGradient id="_Radial33" cx="0" cy="0" r="1" gradientUnits="userSpaceOnUse" gradientTransform="matrix(1052.26,0,0,1052.26,437.016,499.462)"><stop offset="0%" style="stop-color:#d7df22;stop-opacity:1"/><stop offset="70%" style="stop-color:#d0d821;stop-opacity:1"/><stop offset="80%" style="stop-color:#b9c21e;stop-opacity:1"/><stop offset="90%" style="stop-color:#969f17;stop-opacity:1"/><stop offset="100%" style="stop-color:#687205;stop-opacity:1"/></radialGradient><radialGradient id="_Radial34" cx="0" cy="0" r="1" gradientUnits="userSpaceOnUse" gradientTransform="matrix(1052.26,0,0,1052.26,437.016,499.462)"><stop offset="0%" style="stop-color:#d2ac2b;stop-opacity:1"/><stop offset="70%" style="stop-color:#cba729;stop-opacity:1"/><stop offset="80%" style="stop-color:#b69623;stop-opacity:1"/><stop offset="90%" style="stop-color:#947b19;stop-opacity:1"/><stop offset="100%" style="stop-color:#685704;stop-opacity:1"/></radialGradient><radialGradient id="_Radial35" cx="0" cy="0" r="1" gradientUnits="userSpaceOnUse" gradientTransform="matrix(1052.26,0,0,1052.26,437.016,499.462)"><stop offset="0%" style="stop-color:#cdd429;stop-opacity:1"/><stop offset="70%" style="stop-color:#c6ce28;stop-opacity:1"/><stop offset="80%" style="stop-color:#b1b923;stop-opacity:1"/><stop offset="90%" style="stop-color:#8f981a;stop-opacity:1"/><stop offset="100%" style="stop-color:#646c08;stop-opacity:1"/></radialGradient><radialGradient id="_Radial36" cx="0" cy="0" r="1" gradientUnits="userSpaceOnUse" gradientTransform="matrix(1052.26,0,0,1052.26,437.016,499.462)"><stop offset="0%" style="stop-color:#b0d235;stop-opacity:1"/><stop offset="70%" style="stop-color:#aacb33;stop-opacity:1"/><stop offset="80%" style="stop-color:#98b72d;stop-opacity:1"/><stop offset="90%" style="stop-color:#7a9623;stop-opacity:1"/><stop offset="100%" style="stop-color:#536b11;stop-opacity:1"/></radialGradient><radialGradient id="_Radial37" cx="0" cy="0" r="1" gradientUnits="userSpaceOnUse" gradientTransform="matrix(1052.26,0,0,1052.26,437.016,499.462)"><stop offset="0%" style="stop-color:#654a22;stop-opacity:1"/><stop offset="70%" style="stop-color:#624820;stop-opacity:1"/><stop offset="100%" style="stop-color:#342300;stop-opacity:1"/></radialGradient><radialGradient id="_Radial38" cx="0" cy="0" r="1" gradientUnits="userSpaceOnUse" gradientTransform="matrix(1052.26,0,0,1052.26,437.016,499.462)"><stop offset="0%" style="stop-color:#a5452a;stop-opacity:1"/><stop offset="70%" style="stop-color:#a14328;stop-opacity:1"/><stop offset="90%" style="stop-color:#772e16;stop-opacity:1"/><stop offset="100%" style="stop-color:#551b00;stop-opacity:1"/></radialGradient><radialGradient id="_Radial39" cx="0" cy="0" r="1" gradientUnits="userSpaceOnUse" gradientTransform="matrix(1052.26,0,0,1052.26,437.016,499.462)"><stop offset="0%" style="stop-color:#cb5a2c;stop-opacity:1"/><stop offset="70%" style="stop-color:#c5572a;stop-opacity:1"/><stop offset="90%" style="stop-color:#903e18;stop-opacity:1"/><stop offset="100%" style="stop-color:#662702;stop-opacity:1"/></radialGradient><radialGradient id="_Radial40" cx="0" cy="0" r="1" gradientUnits="userSpaceOnUse" gradientTransform="matrix(1052.26,0,0,1052.26,437.016,499.462)"><stop offset="0%" style="stop-color:#ce7d2c;stop-opacity:1"/><stop offset="70%" style="stop-color:#c7792a;stop-opacity:1"/><stop offset="90%" style="stop-color:#925919;stop-opacity:1"/><stop offset="100%" style="stop-color:#673c02;stop-opacity:1"/></radialGradient><radialGradient id="_Radial41" cx="0" cy="0" r="1" gradientUnits="userSpaceOnUse" gradientTransform="matrix(1052.26,0,0,1052.26,437.016,499.462)"><stop offset="0%" style="stop-color:#8cc63f;stop-opacity:1"/><stop offset="70%" style="stop-color:#88c03d;stop-opacity:1"/><stop offset="80%" style="stop-color:#79ad36;stop-opacity:1"/><stop offset="90%" style="stop-color:#608e2b;stop-opacity:1"/><stop offset="100%" style="stop-color:#3f6618;stop-opacity:1"/></radialGradient><radialGradient id="_Radial42" cx="0" cy="0" r="1" gradientUnits="userSpaceOnUse" gradientTransform="matrix(1052.26,0,0,1052.26,437.016,499.462)"><stop offset="0%" style="stop-color:#929a3d;stop-opacity:1"/><stop offset="70%" style="stop-color:#8d963a;stop-opacity:1"/><stop offset="90%" style="stop-color:#656f27;stop-opacity:1"/><stop offset="100%" style="stop-color:#454f13;stop-opacity:1"/></radialGradient><radialGradient id="_Radial43" cx="0" cy="0" r="1" gradientUnits="userSpaceOnUse" gradientTransform="matrix(1052.26,0,0,1052.26,437.016,499.462)"><stop offset="0%" style="stop-color:#87be40;stop-opacity:1"/><stop offset="70%" style="stop-color:#83b93e;stop-opacity:1"/><stop offset="80%" style="stop-color:#75a637;stop-opacity:1"/><stop offset="90%" style="stop-color:#5d892b;stop-opacity:1"/><stop offset="100%" style="stop-color:#3c6218;stop-opacity:1"/></radialGradient><radialGradient id="_Radial44" cx="0" cy="0" r="1" gradientUnits="userSpaceOnUse" gradientTransform="matrix(1052.26,0,0,1052.26,437.016,499.462)"><stop offset="0%" style="stop-color:#71bf44;stop-opacity:1"/><stop offset="70%" style="stop-color:#6eb942;stop-opacity:1"/><stop offset="80%" style="stop-color:#61a73b;stop-opacity:1"/><stop offset="90%" style="stop-color:#4c8a2f;stop-opacity:1"/><stop offset="100%" style="stop-color:#2e631b;stop-opacity:1"/></radialGradient><radialGradient id="_Radial45" cx="0" cy="0" r="1" gradientUnits="userSpaceOnUse" gradientTransform="matrix(1052.26,0,0,1052.26,437.016,499.462)"><stop offset="0%" style="stop-color:#36b44a;stop-opacity:1"/><stop offset="70%" style="stop-color:#34af48;stop-opacity:1"/><stop offset="80%" style="stop-color:#2d9e41;stop-opacity:1"/><stop offset="100%" style="stop-color:#015e20;stop-opacity:1"/></radialGradient><radialGradient id="_Radial46" cx="0" cy="0" r="1" gradientUnits="userSpaceOnUse" gradientTransform="matrix(1052.26,0,0,1052.26,437.016,499.462)"><stop offset="0%" style="stop-color:#4b4726;stop-opacity:1"/><stop offset="80%" style="stop-color:#413e1f;stop-opacity:1"/><stop offset="100%" style="stop-color:#212001;stop-opacity:1"/></radialGradient><radialGradient id="_Radial47" cx="0" cy="0" r="1" gradientUnits="userSpaceOnUse" gradientTransform="matrix(1052.26,0,0,1052.26,437.016,499.462)"><stop offset="0%" style="stop-color:#7c4330;stop-opacity:1"/><stop offset="70%" style="stop-color:#79412e;stop-opacity:1"/><stop offset="100%" style="stop-color:#3d1a06;stop-opacity:1"/></radialGradient><radialGradient id="_Radial48" cx="0" cy="0" r="1" gradientUnits="userSpaceOnUse" gradientTransform="matrix(1052.26,0,0,1052.26,437.016,499.462)"><stop offset="0%" style="stop-color:#955636;stop-opacity:1"/><stop offset="70%" style="stop-color:#905334;stop-opacity:1"/><stop offset="90%" style="stop-color:#693b20;stop-opacity:1"/><stop offset="100%" style="stop-color:#49250a;stop-opacity:1"/></radialGradient><radialGradient id="_Radial49" cx="0" cy="0" r="1" gradientUnits="userSpaceOnUse" gradientTransform="matrix(1052.26,0,0,1052.26,437.016,499.462)"><stop offset="0%" style="stop-color:#947339;stop-opacity:1"/><stop offset="70%" style="stop-color:#8f6f37;stop-opacity:1"/><stop offset="90%" style="stop-color:#685223;stop-opacity:1"/><stop offset="100%" style="stop-color:#47380e;stop-opacity:1"/></radialGradient><radialGradient id="_Radial50" cx="0" cy="0" r="1" gradientUnits="userSpaceOnUse" gradientTransform="matrix(1052.26,0,0,1052.26,437.016,499.462)"><stop offset="0%" style="stop-color:#2bb673;stop-opacity:1"/><stop offset="70%" style="stop-color:#29b070;stop-opacity:1"/><stop offset="80%" style="stop-color:#239f65;stop-opacity:1"/><stop offset="90%" style="stop-color:#138453;stop-opacity:1"/><stop offset="100%" style="stop-color:#005f39;stop-opacity:1"/></radialGradient><radialGradient id="_Radial51" cx="0" cy="0" r="1" gradientUnits="userSpaceOnUse" gradientTransform="matrix(1052.26,0,0,1052.26,437.016,499.462)"><stop offset="0%" style="stop-color:#558e45;stop-opacity:1"/><stop offset="70%" style="stop-color:#528b42;stop-opacity:1"/><stop offset="90%" style="stop-color:#38672e;stop-opacity:1"/><stop offset="100%" style="stop-color:#1f491a;stop-opacity:1"/></radialGradient><radialGradient id="_Radial52" cx="0" cy="0" r="1" gradientUnits="userSpaceOnUse" gradientTransform="matrix(1052.26,0,0,1052.26,437.016,499.462)"><stop offset="0%" style="stop-color:#36ae4c;stop-opacity:1"/><stop offset="70%" style="stop-color:#33a94a;stop-opacity:1"/><stop offset="80%" style="stop-color:#2d9943;stop-opacity:1"/><stop offset="100%" style="stop-color:#045b21;stop-opacity:1"/></radialGradient><radialGradient id="_Radial53" cx="0" cy="0" r="1" gradientUnits="userSpaceOnUse" gradientTransform="matrix(1052.26,0,0,1052.26,437.016,499.462)"><stop offset="0%" style="stop-color:#0bb14b;stop-opacity:1"/><stop offset="70%" style="stop-color:#0bac49;stop-opacity:1"/><stop offset="80%" style="stop-color:#099c42;stop-opacity:1"/><stop offset="100%" style="stop-color:#005d21;stop-opacity:1"/></radialGradient><radialGradient id="_Radial54" cx="0" cy="0" r="1" gradientUnits="userSpaceOnUse" gradientTransform="matrix(1052.26,0,0,1052.26,437.016,499.462)"><stop offset="0%" style="stop-color:#00ad4d;stop-opacity:1"/><stop offset="70%" style="stop-color:#00a84b;stop-opacity:1"/><stop offset="80%" style="stop-color:#009844;stop-opacity:1"/><stop offset="100%" style="stop-color:#005b23;stop-opacity:1"/></radialGradient><radialGradient id="_Radial55" cx="0" cy="0" r="1" gradientUnits="userSpaceOnUse" gradientTransform="matrix(1052.26,0,0,1052.26,437.016,499.462)"><stop offset="0%" style="stop-color:#00a956;stop-opacity:1"/><stop offset="70%" style="stop-color:#00a454;stop-opacity:1"/><stop offset="80%" style="stop-color:#00954d;stop-opacity:1"/><stop offset="100%" style="stop-color:#005929;stop-opacity:1"/></radialGradient><radialGradient id="_Radial56" cx="0" cy="0" r="1" gradientUnits="userSpaceOnUse" gradientTransform="matrix(1052.26,0,0,1052.26,437.016,499.462)"><stop offset="0%" style="stop-color:#009d5f;stop-opacity:1"/><stop offset="70%" style="stop-color:#00985c;stop-opacity:1"/><stop offset="90%" style="stop-color:#007244;stop-opacity:1"/><stop offset="100%" style="stop-color:#00522d;stop-opacity:1"/></radialGradient><radialGradient id="_Radial57" cx="0" cy="0" r="1" gradientUnits="userSpaceOnUse" gradientTransform="matrix(1052.26,0,0,1052.26,437.016,499.462)"><stop offset="0%" style="stop-color:#00996f;stop-opacity:1"/><stop offset="70%" style="stop-color:#00956b;stop-opacity:1"/><stop offset="90%" style="stop-color:#00704f;stop-opacity:1"/><stop offset="100%" style="stop-color:#005036;stop-opacity:1"/></radialGradient><radialGradient id="_Radial58" cx="0" cy="0" r="1" gradientUnits="userSpaceOnUse" gradientTransform="matrix(1052.26,0,0,1052.26,437.016,499.462)"><stop offset="0%" style="stop-color:#087061;stop-opacity:1"/><stop offset="70%" style="stop-color:#086d5e;stop-opacity:1"/><stop offset="90%" style="stop-color:#005044;stop-opacity:1"/><stop offset="100%" style="stop-color:#00372c;stop-opacity:1"/></radialGradient><radialGradient id="_Radial59" cx="0" cy="0" r="1" gradientUnits="userSpaceOnUse" gradientTransform="matrix(1052.26,0,0,1052.26,437.016,499.462)"><stop offset="0%" style="stop-color:#2a4752;stop-opacity:1"/><stop offset="80%" style="stop-color:#243d47;stop-opacity:1"/><stop offset="100%" style="stop-color:#011922;stop-opacity:1"/></radialGradient><radialGradient id="_Radial60" cx="0" cy="0" r="1" gradientUnits="userSpaceOnUse" gradientTransform="matrix(1052.26,0,0,1052.26,437.016,499.462)"><stop offset="0%" style="stop-color:#282536;stop-opacity:1"/><stop offset="100%" style="stop-color:#02000f;stop-opacity:1"/></radialGradient><radialGradient id="_Radial61" cx="0" cy="0" r="1" gradientUnits="userSpaceOnUse" gradientTransform="matrix(1052.26,0,0,1052.26,437.016,499.462)"><stop offset="0%" style="stop-color:#0c200c;stop-opacity:1"/><stop offset="100%" style="stop-color:#000500;stop-opacity:1"/></radialGradient><radialGradient id="_Radial62" cx="0" cy="0" r="1" gradientUnits="userSpaceOnUse" gradientTransform="matrix(1052.26,0,0,1052.26,437.016,499.462)"><stop offset="0%" style="stop-color:#30442a;stop-opacity:1"/><stop offset="80%" style="stop-color:#283c23;stop-opacity:1"/><stop offset="100%" style="stop-color:#081f05;stop-opacity:1"/></radialGradient><radialGradient id="_Radial63" cx="0" cy="0" r="1" gradientUnits="userSpaceOnUse" gradientTransform="matrix(1052.26,0,0,1052.26,437.016,499.462)"><stop offset="0%" style="stop-color:#574235;stop-opacity:1"/><stop offset="80%" style="stop-color:#4c392d;stop-opacity:1"/><stop offset="100%" style="stop-color:#26190c;stop-opacity:1"/></radialGradient><radialGradient id="_Radial64" cx="0" cy="0" r="1" gradientUnits="userSpaceOnUse" gradientTransform="matrix(1052.26,0,0,1052.26,437.016,499.462)"><stop offset="0%" style="stop-color:#66533e;stop-opacity:1"/><stop offset="80%" style="stop-color:#594734;stop-opacity:1"/><stop offset="100%" style="stop-color:#2e2313;stop-opacity:1"/></radialGradient><radialGradient id="_Radial65" cx="0" cy="0" r="1" gradientUnits="userSpaceOnUse" gradientTransform="matrix(1052.26,0,0,1052.26,437.016,499.462)"><stop offset="0%" style="stop-color:#616c40;stop-opacity:1"/><stop offset="70%" style="stop-color:#5e693e;stop-opacity:1"/><stop offset="100%" style="stop-color:#293415;stop-opacity:1"/></radialGradient><radialGradient id="_Radial66" cx="0" cy="0" r="1" gradientUnits="userSpaceOnUse" gradientTransform="matrix(1052.26,0,0,1052.26,437.016,499.462)"><stop offset="0%" style="stop-color:#694039;stop-opacity:1"/><stop offset="80%" style="stop-color:#5c372f;stop-opacity:1"/><stop offset="100%" style="stop-color:#30150d;stop-opacity:1"/></radialGradient><radialGradient id="_Radial67" cx="0" cy="0" r="1" gradientUnits="userSpaceOnUse" gradientTransform="matrix(1052.26,0,0,1052.26,437.016,499.462)"><stop offset="0%" style="stop-color:#08a79d;stop-opacity:1"/><stop offset="70%" style="stop-color:#08a299;stop-opacity:1"/><stop offset="80%" style="stop-color:#07938a;stop-opacity:1"/><stop offset="90%" style="stop-color:#047a72;stop-opacity:1"/><stop offset="100%" style="stop-color:#005751;stop-opacity:1"/></radialGradient><radialGradient id="_Radial68" cx="0" cy="0" r="1" gradientUnits="userSpaceOnUse" gradientTransform="matrix(1052.26,0,0,1052.26,437.016,499.462)"><stop offset="0%" style="stop-color:#009d5f;stop-opacity:1"/><stop offset="70%" style="stop-color:#00985c;stop-opacity:1"/><stop offset="90%" style="stop-color:#007244;stop-opacity:1"/><stop offset="100%" style="stop-color:#00522d;stop-opacity:1"/></radialGradient><radialGradient id="_Radial69" cx="0" cy="0" r="1" gradientUnits="userSpaceOnUse" gradientTransform="matrix(1052.26,0,0,1052.26,437.016,499.462)"><stop offset="0%" style="stop-color:#009375;stop-opacity:1"/><stop offset="70%" style="stop-color:#008f72;stop-opacity:1"/><stop offset="90%" style="stop-color:#006b55;stop-opacity:1"/><stop offset="100%" style="stop-color:#004c3a;stop-opacity:1"/></radialGradient><radialGradient id="_Radial70" cx="0" cy="0" r="1" gradientUnits="userSpaceOnUse" gradientTransform="matrix(1052.26,0,0,1052.26,437.016,499.462)"><stop offset="0%" style="stop-color:#009095;stop-opacity:1"/><stop offset="70%" style="stop-color:#008c91;stop-opacity:1"/><stop offset="80%" style="stop-color:#007f83;stop-opacity:1"/><stop offset="100%" style="stop-color:#004a4d;stop-opacity:1"/></radialGradient><radialGradient id="_Radial71" cx="0" cy="0" r="1" gradientUnits="userSpaceOnUse" gradientTransform="matrix(1052.26,0,0,1052.26,437.016,499.462)"><stop offset="0%" style="stop-color:#046b81;stop-opacity:1"/><stop offset="70%" style="stop-color:#03687e;stop-opacity:1"/><stop offset="90%" style="stop-color:#004c5d;stop-opacity:1"/><stop offset="100%" style="stop-color:#003341;stop-opacity:1"/></radialGradient><radialGradient id="_Radial72" cx="0" cy="0" r="1" gradientUnits="userSpaceOnUse" gradientTransform="matrix(1052.26,0,0,1052.26,437.016,499.462)"><stop offset="0%" style="stop-color:#28456d;stop-opacity:1"/><stop offset="70%" style="stop-color:#274269;stop-opacity:1"/><stop offset="90%" style="stop-color:#172d4d;stop-opacity:1"/><stop offset="100%" style="stop-color:#021634;stop-opacity:1"/></radialGradient><radialGradient id="_Radial73" cx="0" cy="0" r="1" gradientUnits="userSpaceOnUse" gradientTransform="matrix(1052.26,0,0,1052.26,437.016,499.462)"><stop offset="0%" style="stop-color:#272448;stop-opacity:1"/><stop offset="80%" style="stop-color:#201c3f;stop-opacity:1"/><stop offset="100%" style="stop-color:#02001f;stop-opacity:1"/></radialGradient><radialGradient id="_Radial74" cx="0" cy="0" r="1" gradientUnits="userSpaceOnUse" gradientTransform="matrix(1052.26,0,0,1052.26,437.016,499.462)"><stop offset="0%" style="stop-color:#081d10;stop-opacity:1"/><stop offset="100%" style="stop-color:#000200;stop-opacity:1"/></radialGradient><radialGradient id="_Radial75" cx="0" cy="0" r="1" gradientUnits="userSpaceOnUse" gradientTransform="matrix(1052.26,0,0,1052.26,437.016,499.462)"><stop offset="0%" style="stop-color:#2c412c;stop-opacity:1"/><stop offset="90%" style="stop-color:#182d1a;stop-opacity:1"/><stop offset="100%" style="stop-color:#051c07;stop-opacity:1"/></radialGradient><radialGradient id="_Radial76" cx="0" cy="0" r="1" gradientUnits="userSpaceOnUse" gradientTransform="matrix(1052.26,0,0,1052.26,437.016,499.462)"><stop offset="0%" style="stop-color:#27aae1;stop-opacity:1"/><stop offset="60%" style="stop-color:#27aae1;stop-opacity:1"/><stop offset="70%" style="stop-color:#26a6db;stop-opacity:1"/><stop offset="80%" style="stop-color:#2396c6;stop-opacity:1"/><stop offset="90%" style="stop-color:#1b7ca4;stop-opacity:1"/><stop offset="100%" style="stop-color:#085877;stop-opacity:1"/></radialGradient><radialGradient id="_Radial77" cx="0" cy="0" r="1" gradientUnits="userSpaceOnUse" gradientTransform="matrix(1052.26,0,0,1052.26,437.016,499.462)"><stop offset="0%" style="stop-color:#009095;stop-opacity:1"/><stop offset="70%" style="stop-color:#008c91;stop-opacity:1"/><stop offset="80%" style="stop-color:#007f83;stop-opacity:1"/><stop offset="100%" style="stop-color:#004a4d;stop-opacity:1"/></radialGradient><radialGradient id="_Radial78" cx="0" cy="0" r="1" gradientUnits="userSpaceOnUse" gradientTransform="matrix(1052.26,0,0,1052.26,437.016,499.462)"><stop offset="0%" style="stop-color:#008fd2;stop-opacity:1"/><stop offset="70%" style="stop-color:#008ccd;stop-opacity:1"/><stop offset="80%" style="stop-color:#007eb9;stop-opacity:1"/><stop offset="90%" style="stop-color:#00689a;stop-opacity:1"/><stop offset="100%" style="stop-color:#00496f;stop-opacity:1"/></radialGradient><radialGradient id="_Radial79" cx="0" cy="0" r="1" gradientUnits="userSpaceOnUse" gradientTransform="matrix(1052.26,0,0,1052.26,437.016,499.462)"><stop offset="0%" style="stop-color:#006ab5;stop-opacity:1"/><stop offset="70%" style="stop-color:#0067b0;stop-opacity:1"/><stop offset="80%" style="stop-color:#005c9f;stop-opacity:1"/><stop offset="90%" style="stop-color:#004a84;stop-opacity:1"/><stop offset="100%" style="stop-color:#00305f;stop-opacity:1"/></radialGradient><radialGradient id="_Radial80" cx="0" cy="0" r="1" gradientUnits="userSpaceOnUse" gradientTransform="matrix(1052.26,0,0,1052.26,437.016,499.462)"><stop offset="0%" style="stop-color:#1f4395;stop-opacity:1"/><stop offset="70%" style="stop-color:#1e4091;stop-opacity:1"/><stop offset="80%" style="stop-color:#1a3883;stop-opacity:1"/><stop offset="100%" style="stop-color:#01124d;stop-opacity:1"/></radialGradient><radialGradient id="_Radial81" cx="0" cy="0" r="1" gradientUnits="userSpaceOnUse" gradientTransform="matrix(1052.26,0,0,1052.26,437.016,499.462)"><stop offset="0%" style="stop-color:#262261;stop-opacity:1"/><stop offset="70%" style="stop-color:#25205f;stop-opacity:1"/><stop offset="90%" style="stop-color:#150b47;stop-opacity:1"/><stop offset="100%" style="stop-color:#030031;stop-opacity:1"/></radialGradient><radialGradient id="_Radial82" cx="0" cy="0" r="1" gradientUnits="userSpaceOnUse" gradientTransform="matrix(1052.26,0,0,1052.26,437.016,499.462)"><stop offset="0%" style="stop-color:#121c17;stop-opacity:1"/><stop offset="100%" style="stop-color:#000100;stop-opacity:1"/></radialGradient><radialGradient id="_Radial83" cx="0" cy="0" r="1" gradientUnits="userSpaceOnUse" gradientTransform="matrix(1052.26,0,0,1052.26,437.016,499.462)"><stop offset="0%" style="stop-color:#38402e;stop-opacity:1"/><stop offset="80%" style="stop-color:#2f3827;stop-opacity:1"/><stop offset="100%" style="stop-color:#111b09;stop-opacity:1"/></radialGradient><radialGradient id="_Radial84" cx="0" cy="0" r="1" gradientUnits="userSpaceOnUse" gradientTransform="matrix(1052.26,0,0,1052.26,437.016,499.462)"><stop offset="0%" style="stop-color:#1375bc;stop-opacity:1"/><stop offset="70%" style="stop-color:#1372b6;stop-opacity:1"/><stop offset="80%" style="stop-color:#1166a5;stop-opacity:1"/><stop offset="90%" style="stop-color:#0d5389;stop-opacity:1"/><stop offset="100%" style="stop-color:#053863;stop-opacity:1"/></radialGradient><radialGradient id="_Radial85" cx="0" cy="0" r="1" gradientUnits="userSpaceOnUse" gradientTransform="matrix(1052.26,0,0,1052.26,437.016,499.462)"><stop offset="0%" style="stop-color:#006ab5;stop-opacity:1"/><stop offset="70%" style="stop-color:#0067b0;stop-opacity:1"/><stop offset="80%" style="stop-color:#005c9f;stop-opacity:1"/><stop offset="90%" style="stop-color:#004a84;stop-opacity:1"/><stop offset="100%" style="stop-color:#00305f;stop-opacity:1"/></radialGradient><radialGradient id="_Radial86" cx="0" cy="0" r="1" gradientUnits="userSpaceOnUse" gradientTransform="matrix(1052.26,0,0,1052.26,437.016,499.462)"><stop offset="0%" style="stop-color:#0d54a6;stop-opacity:1"/><stop offset="70%" style="stop-color:#0c51a1;stop-opacity:1"/><stop offset="80%" style="stop-color:#0b4892;stop-opacity:1"/><stop offset="100%" style="stop-color:#012056;stop-opacity:1"/></radialGradient><radialGradient id="_Radial87" cx="0" cy="0" r="1" gradientUnits="userSpaceOnUse" gradientTransform="matrix(1052.26,0,0,1052.26,437.016,499.462)"><stop offset="0%" style="stop-color:#273b92;stop-opacity:1"/><stop offset="70%" style="stop-color:#26398e;stop-opacity:1"/><stop offset="80%" style="stop-color:#213280;stop-opacity:1"/><stop offset="100%" style="stop-color:#050a4b;stop-opacity:1"/></radialGradient><radialGradient id="_Radial88" cx="0" cy="0" r="1" gradientUnits="userSpaceOnUse" gradientTransform="matrix(1052.26,0,0,1052.26,437.016,499.462)"><stop offset="0%" style="stop-color:#262261;stop-opacity:1"/><stop offset="70%" style="stop-color:#25205f;stop-opacity:1"/><stop offset="90%" style="stop-color:#150b47;stop-opacity:1"/><stop offset="100%" style="stop-color:#030031;stop-opacity:1"/></radialGradient><radialGradient id="_Radial89" cx="0" cy="0" r="1" gradientUnits="userSpaceOnUse" gradientTransform="matrix(1052.26,0,0,1052.26,437.016,499.462)"><stop offset="0%" style="stop-color:#081014;stop-opacity:1"/><stop offset="100%" style="stop-color:#000;stop-opacity:1"/></radialGradient><radialGradient id="_Radial90" cx="0" cy="0" r="1" gradientUnits="userSpaceOnUse" gradientTransform="matrix(1052.26,0,0,1052.26,437.016,499.462)"><stop offset="0%" style="stop-color:#2b332c;stop-opacity:1"/><stop offset="100%" style="stop-color:#060f07;stop-opacity:1"/></radialGradient><radialGradient id="_Radial91" cx="0" cy="0" r="1" gradientUnits="userSpaceOnUse" gradientTransform="matrix(1052.26,0,0,1052.26,437.016,499.462)"><stop offset="0%" style="stop-color:#1a4697;stop-opacity:1"/><stop offset="70%" style="stop-color:#194393;stop-opacity:1"/><stop offset="80%" style="stop-color:#163b85;stop-opacity:1"/><stop offset="100%" style="stop-color:#00144e;stop-opacity:1"/></radialGradient><radialGradient id="_Radial92" cx="0" cy="0" r="1" gradientUnits="userSpaceOnUse" gradientTransform="matrix(1052.26,0,0,1052.26,437.016,499.462)"><stop offset="0%" style="stop-color:#273b92;stop-opacity:1"/><stop offset="70%" style="stop-color:#26398e;stop-opacity:1"/><stop offset="80%" style="stop-color:#213280;stop-opacity:1"/><stop offset="100%" style="stop-color:#050a4b;stop-opacity:1"/></radialGradient><radialGradient id="_Radial93" cx="0" cy="0" r="1" gradientUnits="userSpaceOnUse" gradientTransform="matrix(1052.26,0,0,1052.26,437.016,499.462)"><stop offset="0%" style="stop-color:#2e3489;stop-opacity:1"/><stop offset="70%" style="stop-color:#2d3285;stop-opacity:1"/><stop offset="90%" style="stop-color:#1e1d64;stop-opacity:1"/><stop offset="100%" style="stop-color:#0b0446;stop-opacity:1"/></radialGradient><radialGradient id="_Radial94" cx="0" cy="0" r="1" gradientUnits="userSpaceOnUse" gradientTransform="matrix(1052.26,0,0,1052.26,437.016,499.462)"><stop offset="0%" style="stop-color:#26225e;stop-opacity:1"/><stop offset="70%" style="stop-color:#25205c;stop-opacity:1"/><stop offset="90%" style="stop-color:#150c44;stop-opacity:1"/><stop offset="100%" style="stop-color:#03002f;stop-opacity:1"/></radialGradient><radialGradient id="_Radial95" cx="0" cy="0" r="1" gradientUnits="userSpaceOnUse" gradientTransform="matrix(1052.26,0,0,1052.26,437.016,499.462)"><stop offset="0%" style="stop-color:#000511;stop-opacity:1"/><stop offset="100%" style="stop-color:#000;stop-opacity:1"/></radialGradient><radialGradient id="_Radial96" cx="0" cy="0" r="1" gradientUnits="userSpaceOnUse" gradientTransform="matrix(1052.26,0,0,1052.26,437.016,499.462)"><stop offset="0%" style="stop-color:#20252a;stop-opacity:1"/><stop offset="100%" style="stop-color:#000104;stop-opacity:1"/></radialGradient><radialGradient id="_Radial97" cx="0" cy="0" r="1" gradientUnits="userSpaceOnUse" gradientTransform="matrix(1052.26,0,0,1052.26,437.016,499.462)"><stop offset="0%" style="stop-color:#010210;stop-opacity:1"/><stop offset="100%" style="stop-color:#000;stop-opacity:1"/></radialGradient><radialGradient id="_Radial98" cx="0" cy="0" r="1" gradientUnits="userSpaceOnUse" gradientTransform="matrix(1052.26,0,0,1052.26,437.016,499.462)"><stop offset="0%" style="stop-color:#262261;stop-opacity:1"/><stop offset="70%" style="stop-color:#25205f;stop-opacity:1"/><stop offset="90%" style="stop-color:#150b47;stop-opacity:1"/><stop offset="100%" style="stop-color:#030031;stop-opacity:1"/></radialGradient><radialGradient id="_Radial99" cx="0" cy="0" r="1" gradientUnits="userSpaceOnUse" gradientTransform="matrix(1052.26,0,0,1052.26,437.016,499.462)"><stop offset="0%" style="stop-color:#26225e;stop-opacity:1"/><stop offset="70%" style="stop-color:#25205c;stop-opacity:1"/><stop offset="90%" style="stop-color:#150c44;stop-opacity:1"/><stop offset="100%" style="stop-color:#03002f;stop-opacity:1"/></radialGradient><radialGradient id="_Radial100" cx="0" cy="0" r="1" gradientUnits="userSpaceOnUse" gradientTransform="matrix(1052.26,0,0,1052.26,437.016,499.462)"><stop offset="0%" style="stop-color:#1a1542;stop-opacity:1"/><stop offset="80%" style="stop-color:#130c3a;stop-opacity:1"/><stop offset="100%" style="stop-color:#00001e;stop-opacity:1"/></radialGradient><radialGradient id="_Radial101" cx="0" cy="0" r="1" gradientUnits="userSpaceOnUse" gradientTransform="matrix(1052.26,0,0,1052.26,437.016,499.462)"><stop offset="0%" style="stop-color:#000004;stop-opacity:1"/><stop offset="100%" style="stop-color:#000;stop-opacity:1"/></radialGradient><radialGradient id="_Radial102" cx="0" cy="0" r="1" gradientUnits="userSpaceOnUse" gradientTransform="matrix(1052.26,0,0,1052.26,437.016,499.462)"><stop offset="0%" style="stop-color:#16121a;stop-opacity:1"/><stop offset="100%" style="stop-color:#000;stop-opacity:1"/></radialGradient><radialGradient id="_Radial103" cx="0" cy="0" r="1" gradientUnits="userSpaceOnUse" gradientTransform="matrix(1052.26,0,0,1052.26,437.016,499.462)"><stop offset="0%" style="stop-color:#3c2414;stop-opacity:1"/><stop offset="90%" style="stop-color:#2d1705;stop-opacity:1"/><stop offset="100%" style="stop-color:#1f0800;stop-opacity:1"/></radialGradient><radialGradient id="_Radial104" cx="0" cy="0" r="1" gradientUnits="userSpaceOnUse" gradientTransform="matrix(1052.26,0,0,1052.26,437.016,499.462)"><stop offset="0%" style="stop-color:#000004;stop-opacity:1"/><stop offset="100%" style="stop-color:#000;stop-opacity:1"/></radialGradient><radialGradient id="_Radial105" cx="0" cy="0" r="1" gradientUnits="userSpaceOnUse" gradientTransform="matrix(1052.26,0,0,1052.26,437.016,499.462)"><stop offset="0%" style="stop-color:#040000;stop-opacity:1"/><stop offset="100%" style="stop-color:#000;stop-opacity:1"/></radialGradient><radialGradient id="_Radial106" cx="0" cy="0" r="1" gradientUnits="userSpaceOnUse" gradientTransform="matrix(1052.26,0,0,1052.26,437.016,499.462)"><stop offset="0%" style="stop-color:#1c0100;stop-opacity:1"/><stop offset="100%" style="stop-color:#060000;stop-opacity:1"/></radialGradient><radialGradient id="_Radial107" cx="0" cy="0" r="1" gradientUnits="userSpaceOnUse" gradientTransform="matrix(1052.26,0,0,1052.26,437.016,499.462)"><stop offset="0%" style="stop-color:#754c28;stop-opacity:1"/><stop offset="70%" style="stop-color:#724a27;stop-opacity:1"/><stop offset="100%" style="stop-color:#3e2404;stop-opacity:1"/></radialGradient><radialGradient id="_Radial108" cx="0" cy="0" r="1" gradientUnits="userSpaceOnUse" gradientTransform="matrix(1052.26,0,0,1052.26,437.016,499.462)"><stop offset="0%" style="stop-color:#1c0100;stop-opacity:1"/><stop offset="100%" style="stop-color:#060000;stop-opacity:1"/></radialGradient><radialGradient id="_Radial109" cx="0" cy="0" r="1" gradientUnits="userSpaceOnUse" gradientTransform="matrix(1052.26,0,0,1052.26,437.016,499.462)"><stop offset="0%" style="stop-color:#3e1c0e;stop-opacity:1"/><stop offset="100%" style="stop-color:#1e0000;stop-opacity:1"/></radialGradient><radialGradient id="_Radial110" cx="0" cy="0" r="1" gradientUnits="userSpaceOnUse" gradientTransform="matrix(1052.26,0,0,1052.26,437.016,499.462)"><stop offset="0%" style="stop-color:#c0452f;stop-opacity:1"/><stop offset="70%" style="stop-color:#bb432d;stop-opacity:1"/><stop offset="90%" style="stop-color:#8b2f1b;stop-opacity:1"/><stop offset="100%" style="stop-color:#651b05;stop-opacity:1"/></radialGradient><radialGradient id="_Radial111" cx="0" cy="0" r="1" gradientUnits="userSpaceOnUse" gradientTransform="matrix(1052.26,0,0,1052.26,437.016,499.462)"><stop offset="0%" style="stop-color:#621f18;stop-opacity:1"/><stop offset="80%" style="stop-color:#571811;stop-opacity:1"/><stop offset="100%" style="stop-color:#340000;stop-opacity:1"/></radialGradient><radialGradient id="_Radial112" cx="0" cy="0" r="1" gradientUnits="userSpaceOnUse" gradientTransform="matrix(1052.26,0,0,1052.26,437.016,499.462)"><stop offset="0%" style="stop-color:#9e2523;stop-opacity:1"/><stop offset="70%" style="stop-color:#992321;stop-opacity:1"/><stop offset="90%" style="stop-color:#73120e;stop-opacity:1"/><stop offset="100%" style="stop-color:#540400;stop-opacity:1"/></radialGradient><radialGradient id="_Radial113" cx="0" cy="0" r="1" gradientUnits="userSpaceOnUse" gradientTransform="matrix(1052.26,0,0,1052.26,437.016,499.462)"><stop offset="0%" style="stop-color:#f15d38;stop-opacity:1"/><stop offset="70%" style="stop-color:#ea5a37;stop-opacity:1"/><stop offset="80%" style="stop-color:#d15130;stop-opacity:1"/><stop offset="100%" style="stop-color:#7b290c;stop-opacity:1"/></radialGradient><radialGradient id="_Radial114" cx="0" cy="0" r="1" gradientUnits="userSpaceOnUse" gradientTransform="matrix(1052.26,0,0,1052.26,437.016,499.462)"><stop offset="0%" style="stop-color:#75271c;stop-opacity:1"/><stop offset="70%" style="stop-color:#73251b;stop-opacity:1"/><stop offset="100%" style="stop-color:#3f0300;stop-opacity:1"/></radialGradient><radialGradient id="_Radial115" cx="0" cy="0" r="1" gradientUnits="userSpaceOnUse" gradientTransform="matrix(1052.26,0,0,1052.26,437.016,499.462)"><stop offset="0%" style="stop-color:#bf2825;stop-opacity:1"/><stop offset="70%" style="stop-color:#ba2724;stop-opacity:1"/><stop offset="90%" style="stop-color:#8a1612;stop-opacity:1"/><stop offset="100%" style="stop-color:#640700;stop-opacity:1"/></radialGradient><radialGradient id="_Radial116" cx="0" cy="0" r="1" gradientUnits="userSpaceOnUse" gradientTransform="matrix(1052.26,0,0,1052.26,437.016,499.462)"><stop offset="0%" style="stop-color:#ee2e26;stop-opacity:1"/><stop offset="70%" style="stop-color:#e72c25;stop-opacity:1"/><stop offset="80%" style="stop-color:#cf2720;stop-opacity:1"/><stop offset="100%" style="stop-color:#7a0b01;stop-opacity:1"/></radialGradient><radialGradient id="_Radial117" cx="0" cy="0" r="1" gradientUnits="userSpaceOnUse" gradientTransform="matrix(1052.26,0,0,1052.26,437.016,499.462)"><stop offset="0%" style="stop-color:#f58429;stop-opacity:1"/><stop offset="70%" style="stop-color:#ee8028;stop-opacity:1"/><stop offset="80%" style="stop-color:#d57323;stop-opacity:1"/><stop offset="90%" style="stop-color:#ae5e18;stop-opacity:1"/><stop offset="100%" style="stop-color:#7c4003;stop-opacity:1"/></radialGradient><radialGradient id="_Radial118" cx="0" cy="0" r="1" gradientUnits="userSpaceOnUse" gradientTransform="matrix(1052.26,0,0,1052.26,437.016,499.462)"><stop offset="0%" style="stop-color:#75321c;stop-opacity:1"/><stop offset="70%" style="stop-color:#72311b;stop-opacity:1"/><stop offset="100%" style="stop-color:#3f0e00;stop-opacity:1"/></radialGradient><radialGradient id="_Radial119" cx="0" cy="0" r="1" gradientUnits="userSpaceOnUse" gradientTransform="matrix(1052.26,0,0,1052.26,437.016,499.462)"><stop offset="0%" style="stop-color:#bf3224;stop-opacity:1"/><stop offset="70%" style="stop-color:#ba3023;stop-opacity:1"/><stop offset="90%" style="stop-color:#8a1f11;stop-opacity:1"/><stop offset="100%" style="stop-color:#640c00;stop-opacity:1"/></radialGradient><radialGradient id="_Radial120" cx="0" cy="0" r="1" gradientUnits="userSpaceOnUse" gradientTransform="matrix(1052.26,0,0,1052.26,437.016,499.462)"><stop offset="0%" style="stop-color:#ef3c24;stop-opacity:1"/><stop offset="70%" style="stop-color:#e73b23;stop-opacity:1"/><stop offset="80%" style="stop-color:#cf341e;stop-opacity:1"/><stop offset="100%" style="stop-color:#7a1400;stop-opacity:1"/></radialGradient><radialGradient id="_Radial121" cx="0" cy="0" r="1" gradientUnits="userSpaceOnUse" gradientTransform="matrix(1052.26,0,0,1052.26,437.016,499.462)"><stop offset="0%" style="stop-color:#f05223;stop-opacity:1"/><stop offset="70%" style="stop-color:#e95022;stop-opacity:1"/><stop offset="80%" style="stop-color:#d0481d;stop-opacity:1"/><stop offset="100%" style="stop-color:#7a2300;stop-opacity:1"/></radialGradient><radialGradient id="_Radial122" cx="0" cy="0" r="1" gradientUnits="userSpaceOnUse" gradientTransform="matrix(1052.26,0,0,1052.26,437.016,499.462)"><stop offset="0%" style="stop-color:#751f1b;stop-opacity:1"/><stop offset="70%" style="stop-color:#731d19;stop-opacity:1"/><stop offset="100%" style="stop-color:#3f0100;stop-opacity:1"/></radialGradient><radialGradient id="_Radial123" cx="0" cy="0" r="1" gradientUnits="userSpaceOnUse" gradientTransform="matrix(407.212,0,0,73.4205,436.186,871.686)"><stop offset="0%" style="stop-color:#808285;stop-opacity:1"/><stop offset="100%" style="stop-color:#fff;stop-opacity:0"/></radialGradient></defs></svg>